<mxfile host="app.diagrams.net" modified="2023-11-21T17:57:22.070Z" agent="Mozilla/5.0 (Windows NT 10.0; Win64; x64) AppleWebKit/537.36 (KHTML, like Gecko) Chrome/119.0.0.0 Safari/537.36 Edg/119.0.0.0" etag="sXU5MGEIba1KUPvakyE0" version="22.1.3" type="device" pages="2">
  <diagram name="Страница — 1" id="o3sYmgAIau1fM3dsohi6">
    <mxGraphModel dx="3609" dy="1867" grid="1" gridSize="10" guides="1" tooltips="1" connect="1" arrows="1" fold="1" page="1" pageScale="1" pageWidth="3300" pageHeight="2339" math="0" shadow="0">
      <root>
        <mxCell id="0" />
        <mxCell id="1" parent="0" />
        <mxCell id="MUi1yYkGbGkddvzHHs3n-37" value="" style="shape=image;imageAspect=0;aspect=fixed;verticalLabelPosition=bottom;verticalAlign=top;image=data:image/png,iVBORw0KGgoAAAANSUhEUgAAA5AAAALoCAYAAAAOSho8AAAAAXNSR0IArs4c6QAACeN0RVh0bXhmaWxlACUzQ214ZmlsZSUyMGhvc3QlM0QlMjJhcHAuZGlhZ3JhbXMubmV0JTIyJTIwbW9kaWZpZWQlM0QlMjIyMDIzLTExLTIxVDE3JTNBNTYlM0E0NC44MThaJTIyJTIwYWdlbnQlM0QlMjJNb3ppbGxhJTJGNS4wJTIwKFdpbmRvd3MlMjBOVCUyMDEwLjAlM0IlMjBXaW42NCUzQiUyMHg2NCklMjBBcHBsZVdlYktpdCUyRjUzNy4zNiUyMChLSFRNTCUyQyUyMGxpa2UlMjBHZWNrbyklMjBDaHJvbWUlMkYxMTkuMC4wLjAlMjBTYWZhcmklMkY1MzcuMzYlMjBFZGclMkYxMTkuMC4wLjAlMjIlMjBldGFnJTNEJTIybHVMN1lka3BCMGR5TDFVXzVsbzYlMjIlMjB2ZXJzaW9uJTNEJTIyMjIuMS4zJTIyJTIwdHlwZSUzRCUyMmRldmljZSUyMiUyMHBhZ2VzJTNEJTIyMiUyMiUzRSUzQ2RpYWdyYW0lMjBpZCUzRCUyMlkweTNjS3YtNEEyYUlNSElhMGtpJTIyJTIwbmFtZSUzRCUyMlBhZ2UtMSUyMiUzRTdadGJsNkk0RUlCJTJGRFklMkZkaHlRSyUyQkloQ1gzWkgzV1BUTSUyRnZLU0ZvNWc4VEZPTnI3NnpjRWdtQXl2Y3dNMGRFZUh4Q0xjUHVxVXFsS1NnT05WdnY3TEZ3dnh5VENpUUhOYUc4Z3o0QVFBZHRrWDdua3RaQkFaSmFTUlJaSGhRd2NCRSUyRnh2N2dVaW1iYk9NS2JSa05LU0VMamRWTTRKMm1LNTdRaEM3T003SnJOWGtqU3ZPczZYR0JKOERRUEUxbjZLWTdvc3BBNmZmTWdmOER4WWludURNVDdyVUxSdUJSc2xtRkVkalVSOGcwMHlnaWh4ZDVxUDhKSlRrOXdLYzY3JTJCOGJSNnNFeW5OSTJKOERpaEs5aHNpM2ZyWHd1JTJCaXBlTmlQYk5NSjVlOU5BdzkweXB2aHBIYzd6b3p1bVh5WmIwbFhDZmdHMks5JTJCJTJGZktTdk9LTjRYeE9WejNPUHlRclQ3SlUxS1klMkZlOUFXdDBqeHVrRlVLZGdmWUEyRUx5eHBvdTFjS3cxTEJpJTJCcnFCd1pzcDhTZ1JvS3VDa2xsZWolMkJEcEhjQlNLQnpTaUpPdjJNa0c1cVJMM2hFRXBJeFNZUmZ3bTNDSG5qNFFsSmFPa0FBVDJsTmpqWjBsb1R1JTJCY2xuWDZZYkdNaVZNTEszb20lMkJ4U2ttS2MxQnhraHlKd2lSZXBPem5uTEhDVEQ3TUdjWE1qYnZsZ1ZVY1JmbHRsTXBwcXU5c2VyQVVla0JkcU1HJTJCWUF2dXdSYmtOSnF3STdGem40T0g2WXpicjJrd1hDN2ZEb3V0YlRCQ1RsMEMlMkJOYm5jc2kzTnBjNGZPdVclMkI4V2xCc1VGR1JLTEElMkYyY3NiMEY1U2l0ZjdaNXFEQjhJSlFIV1E5a3M0NHBNM3lhNHhxSEtRdEZWam5vcXFXRyUyRnBYZ0YlMkZycjlhNVdOZ0pVTnRKRkZPRU1KQlB4M01BdkRBU0NXd0J1MlRkNk45cW9vTDZwRFFEMGFHTmdTdHI0YXpiOXd4OEZoeDU3NkdibTczNzFYZjBLS0RScGF4cTJCa0RTNU16JTJGeUxWb2hhdWNRUHA1cyUyQmF2YWg2TFlPJTJGOWRUczB1TzBmcThzV29rYlgwJTJCUUlCMTJubUczampMcXVqSHlLSWY5MGhCVzA4V2F3THhNVnNwOGkybldHZXNySVRTYUhaR1BVUnE3clJQYTg1QlIlMkJWeHU1Uzg1M0pYSlYlMkJuNEtjbks2ZXpua3JPT3hRJTJCWG1UQVc1VHRLc2daeWlmcHJPJTJGbnljM0olMkJHNE5IUTNva3BnaFpFZ2FQTEZ1VzgxWnU1ZDhFVjRWU01KdnB3eWpuZXpCOU54Mk4lMkY0dm5lRlVGVkJmaTZvRmFlbzU2clBROCUyRlBJN2M0SEU2dVI2cXFrRklJMVU1YjdwVWxIYWJtWVNlSXAzcEJ1UzU4cGtUZ0ZRNVQzMGd6NVhHbkFDa3ltSHFBM211ckVZJTJGU0tXUDFBZFNUbkptdnV2NU13bm4xYTVKdGZHdHFoV3BidmpMcVJLZk0zODM5S0c4SUFnVmMzWDZGQ0FIdEdMUmFiTU8wNFlXeEx4M2p1Rm13emtVU3h2cnZWRmZtUkpyVmE0cExzVWVvN2lhV01TNmtHejR4d09QVHJMaGFvYTJwcDNSZEJMNGYydGFOdjhsWjdSYktjRldSZEdkcUVBUlJmT2xJJTJGMGpMZ1R5blBZZCUyRjNTVW9MUXBxRkV1bDNaazNXZUlxM1V6QmZiJTJGSTRVYUhZWWNHRTZtbm44WlJUYTlFNXExcmhxYkt1ZXZhJTJCQjVQTHlJaUxJakJiVHBBOVpBRiUyRjl6VEw3MzlEb1ZoSnBBMnhidmRUTUF5bFB5d1dQdzRaMzVGQVRQNlZQa1NmenZEdExoTjRKMFhnSFQ0JTJGVm9pTmVnZWFJZWpVa3NVYUhHOXUlMkJNZXBVTWo0RjhVZGoyZHFsYlZkNW1HdENVVHZGcmQzVWtPYXhkMW1zJTJCVGUxTldpVVoxMnVjOEpBekNnJTJCaG1JNUNxZ0tkSDZqM1lEOFAlMkYxYmd4MnAlMkYlMkJrRCUyQmZ3JTNEJTNEJTNDJTJGZGlhZ3JhbSUzRSUzQ2RpYWdyYW0lMjBpZCUzRCUyMnN0bWRoSGdsZV9zTDRIYWpKQmpIJTIyJTIwbmFtZSUzRCUyMiVEMCVBMSVEMSU4MiVEMSU4MCVEMCVCMCVEMCVCRCVEMCVCOCVEMSU4NiVEMCVCMCUyMCVFMiU4MCU5NCUyMDIlMjIlM0VuWkt4RG9Jd0VJYWZwbnZ0RWFLckZYVnhZbkJ1YUlVbWhTT2xCdlRwQlF0aXcwQTBhZExrJTJCNyUyRmNYUzhsd012dVpFVmRYRkFxUXhpVkhZRURZV3dUczZpJTJGQnZMd1pCdFJEM0tyNVNqTklOVlBOY0pKdTJ1cG1rQjBpTWJwT29RWlZwWEtYTUNFdGRpRzJnMU4yTFVXdVZxQU5CTm1TYTlhdXNKVEFFcm40S3gwWG95dCUyQjJqbmsxSk05cWcyaFpEWWZpRklDSXNKZzA0UTJKT0JoUWU0UlhTcjJpU1hIVmRtMlA2MFdOJTJGMyUyQkglMkJCeiUyQk90cXR4dk5ZSDMxc3I0YnlmNE9aQzhBQSUzRCUzRCUzQyUyRmRpYWdyYW0lM0UlM0MlMkZteGZpbGUlM0VR6PQcAAAgAElEQVR4XuzdDaw1RX0/8CX/1KpFsKRRCNAXaCslCio1DZRqW8S+xYaXQvENAS0gAqFFKIJgC4oUpTaIAr4ggi8oUUlsapTiS0Uw4hu1pWqE2gKCpkFFaFIbwz+/jXM7d58995x7786558x+bmJ8uPec2Z3PzJ49353Z2e0aPwQIECBAgAABAgQIECBAYAaB7WZ4jZcQIECAAAECBAgQIECAAIEmAuQjHAgQIECAAAECBAgQIECAwBSB7doA+cgjMuRGu8p2220XgBt9u/cRIEBgokB8vszjx2fYPJRtY6sEnKe3Sn45tzu2/jK2+i5nr1ycvf7J9xIBcrNN4sDbrKD3EyAwSUCA1DcIbF7AeXrzhmMqYWz9ZWz1HVNfLlFXAXIgVQfeQJCKIUBgGwEBUqcgsHkB5+nNG46phLH1l7HVd0x9uURdBciBVB14A0EqhgABAVIfIFBAwHm6AGrFRY6tv4ytvhV33blUTYAciNmBNxCkYggQECD1AQIFBJynC6BWXGRff3n961/fnHnmmatqfcghhzRXX311s+OOO676/cte9rLm/vvvX/nbhz70oebwww/vFfvgBz/Y3HnnnduUHS8+8cQTm8svv7y4dLe+3f29+OKLmzPOOGPVfqz1mrvvvrut73777bdq/8Pwrrvuai666KLmmGOOaW644YZt6hamr33ta9u/33bbbav+vueeezbXXnttc99997Ve8e/999+/fc2tt97avOhFL2piX2+88cbmiiuu2KbsZzzjGU1477777sVNa96AADlQ6zoxDQSpGAIEBEh9gEABAefpAqgVFzkpQN5yyy2rAmM3KKYgEyEmfiLkpICTuOI98ZMHwwhW3bLnyZvXN4JhHs5+8IMftGHugAMOWAmRsb/XX3/9ShhLr9l5553beqUA+cADD6wKeSlA5nWP4Hfqqac2l1566YpVev9ZZ53VHHbYYb0UuVm8oLuP8btZypmncy3bEiAHakknpoEgFUOAgACpDxAoIOA8XQC14iJnDZB9ASWCTfqJ0bbuCOIiB8i+sJhC8XnnnddcddVVbdWOO+645vzzz18VjsMi/X633XZr/x2B8qGHHloJ3UMGyHxfY5/6Ani3ffJ97Ab7irvz4FUTIAci7fug6bsqNelKyHqH9LtXZPoOyFmmFnSnBkyaitFlirp1pwbMe1pA+uDIpz/0TbEYqImLFNO9ypdvZJbpI0V2SqELJzDPRXTi2N5jjz1WrjKnKUEnnHDCqt/lV4u7x2L3syCVEVO08p98albfF6r4XUxDiilK11xzzcp+9e1TlNvd9xo+IxauMy7xDvWdp9M5ea1z4aT+2+3n3RGYRNX3/jQNL32B7TunxvvTOa3v790ylrhpFnLXZw2Q3c+e6Acnn3xyc9JJJzURotJnZT5lcpEDZN9oYLeB4vtJfC53p+7mge6oo45qA2RMe40AHVNLYyRxyACZgm2UHT/5dNa0z0YgyxxeAuRArt0PmjgA+6YvTAuQGx3S7x6Qs04tyIPopKtOfUSTPvz6rrQNRLxNMa94xSva+fXLegUpnWSiYvvss8+qewtmmT5SylW5iycwzwDZ/SyJvvi6172u2WuvvZrLLrusvc8n//Lw4IMPtsfhEUccsdKHu/13lulJ3c+U7gW4PBymL+Q77bTTqntZ8tf03X/ji8Ti9e157tFaAXKtc+EsX6ijHum4iH/HVLwUGPre3z1G+s6puc0iBo55tt1WbGujATLa+y1vecvK52W03cEHH7xqGuak9uzeXxn1jvv1Jk3hHNIl1Tf2P400TrpPcFKAzMN0CpAxShn3K8Y9j1GX6667rr0Hctbvu9MGOtJ319h2372oPveH7CX/V9bEADnpA7N7hbd7Q3E+AtR3s3FsOl11Xs/NyGmX+67wTbpyN88Rse4HzaTpC/MIkJOG57tTC+JL31ojmWt9iPR9+OUfKDfddNOqm8XTB2B+JTb1g7Sdfffdt7nkkkua7lXVvJ+kv8VVvXe84x3Nd77znZWR0LzvdUceYvvx072BPfpIfLA//vGPX/nym/r48ccfv3IVMUJqfkxEWekEEXWND8b44Iov2nHVsfv6vpCbTjJx5SzqGNNC4sN6lukjbv4u84G4qKXOM0B2j/s4HuICRxzfabpS+nyLK8t9V5PDMf/9LOeT/DOl716gboCMLzjbb799Oz0qfRHJXzPpfqJJ+7uobW+/hhOYNUDO2n+7e5aCQoyad0fxu/d3pS/a8f/RfzcSIGf5oj+c3vhKmjVAds/Zfd9tuwvhLOIFgTxA9vXXvAesN0DGd6D0+RzlrCdArnUPZDpWP/7xj7e795znPGebhX4EyDLH7qYCZHeUKzVSuhI97YbgSV8S8lWrutWedIUvXreVnST/oFlr+sI8AuSsUwu6AXKzI5DpA/Hoo49edTN0aue4IhsfShGYDjrooJVwFm0Xv4sgFyfSvF+kcJZWzMq3Ee9J0+q6rvnoRZSR3wze9cm/DOdXz7oBMp9OlwLkhRde2Jx99tltaNx7771XBc789X0BMt9ufoVy1qvdZT4SlLqIAvMMkPnnV96nYwppHKNx7MZCBek4Tv/uXiGP4yxdcb7nnnumLpCQju344p0vzJDaoy9AXnDBBc255567Emzziz99iyksYtvap/kJzBogu+fCWT6T4xyUvnRHf89HoCa9Pz8XxZfkFCb7RBYxcMyv5bZmS7MGyPz7R1yU7n636ruov4jtmeo76btg3sejRWa9BzJdeEzHQcxmiYt/s45ArhUguxf2+4LvVmaDrem589nqpgLktAPgrW9965orSvUFyGkNPekKX1+AnOeNsvkHzVrTF4YKkN0h/ah/usI165Wh+JDrljPrctF9o76T7p/s25/0ARVfQnfZZZdVXy7Xarc0ehAhtTvFonsfaZpv3/0w3EiAjOkXH/7wh9ujMsJiCpBxtStu2o4PwvyLd/f13QCZvzb+FvsUV62jHFeV5/Pht0xbmWeAzC+iHHjggatG2qOPxgWTdJLeYYcdVsJkN0Dm/Ti+UMfx2L0HMp81kH+m9M0e6QuQMWof06HSwgnxRSMCaFz86QbbvPxZ7/Vepj5iX6cLrOceyPxcOMs9vPlnePfzfdYA2V1XIJ+N03fOnecsq+m69b1i1gDZvWCdLpylmUJ9gWza9+fuI0HmoZvXd9JtNPmMj1luleqGzDQ62/2uOcttDl2D7qBV/H0juWIetjVuY1MBMi3yMelkvJERyPzLS/d5M2td4esLkPNssPzAW2v6wlABcq2pp+sJkKmcWa6w5p6zTLfJT4Z5H0n9pjuFNU3hzANkjIB0nxMU74sAmV/hjX1LJ/D4gtu9Aph/+ez6dP+7O4U1vvjGjdnp/1OAjP9+ylOesjLnPn1p6Ht9N0D2fSFJXwb6Rmvm2Zdta/EE5h0g07EUI44R+uKzOJ9yHcdD3A8ZP5NGILsBMr8ynI9Opi9Zcdx98YtfbO+RiZH97kyUSQEyD7Fp6mAKkPmS86lV1/p8XLyWt0dDCswyAtl3Lpzl/NgX8NIFkknvz78jrWcEcj2zhYb0G1tZkwLkWs+BnPTdqBu2JgXIvnsg53XBq1vf7kJ+fQMM3dfkFwX7BgPWWmhq0mM8+gZM4hyUbk3K73vsK98qrGWO3E0FyNil7r1meUefdA9kuh9uUsDMvyjk1V7rCt+iBMi+gNgXiNLoWKpf34fJeq7I5Pf1bPQeyO4H3Fpdbq0A2f1yOOkLW2rnGOXIPzjyet98882rRrFTPfNRkPQFdKMjkOmiRR5440MwTWGNq8Bxr2VcVUwrq8V7IsCmsJi+TMff+14/yzOgpk2/yy+guAeyzAfiopY67wAZfS1CXCy9fuihh7YLOMRnfXzJjfsh4/fpAt9G74HMr9rH1fb8M2XSFft0X1l3lD595uy6664rzymbdH4RIBe1l5ffr1kCZBrFyKdRTwuQk0JnmiUz6aJg3udnuSgb+5am/aWLkHGumscCK+VbZ/G20NdfFm8vh9ujsdV3OLlxlrTpANllyz8ENzICudaVtbWu8C1KgOy7st6tU/eL06QTwUYDZN8JsHtVpi/orueq5qwBMo0OxD699rWvbc4555yV1enyAJnfz5j3m3wadFrtcb/99ltZdCB9oeyG5u6UkrXugezrw/k0uK9+9avtCGR+P1gKkBEcYx/jJ4169L0+D5BrjUKnqXjd+zYnXbUr/bGV9rV7BbBvVbjuPnYvLuX7Gheaoj/E6FW37FmWpl/rwlXazqxT2Ce9btpU4u6V19wkd8svqnVHnvOrtfnfulPT5h0g02h6BMV8NclY+fjhhx9uZwCkPt03jag7/WmWz7LuZ0r3c3HSCGQ+ghkXgZJp2q/0eZGfIyJo9q3WV/p4Uv7WCswaINd7D+S0aXPd2zRCoXuMrDdApvP8Vj54fmtbs/zWxxaoxlbf8j2o7i1MDJBrDT3HtKDuAiOJKb+6O+Q9kNOu8MWXiGn3T5ZsynTgrWf6Qj7i1feFfJYvXalOfaMA06YW9K3Cmp/UouxJSzmvdbLLv9xHGDj99NPbk2W6XylN0UhfrO+44452O3FTdTzTMf/ynH8Rj98fe+yxTay2FV/+4ief3jptFdZ0lXbaCMSkkcD8vpY8QEawjXn+Ua8YlUzT5rr3weTHSPceifhb9wvzLNNHSvbpSRdlJl3wSK7xvjx0pLpNmp4ybYW1vjrmCxD1XfhI/eaBBx7ofS5UHjLjOOi+LtWx+5iI/H35s73yC0fpoknqB+lYyUewu6v0dhdg6n4hnXeAnPTltO8CWby2G+j7ngPZt7hBPushRjzjJ19YIc1iic/HfGXLvnDfF2SjvO6Fx2V7VmzpY3xM5c8aILsBL/677x7eOL9Ff80/93PPdCEzbnuIf+f3AM/6HMg0bbDvnDupz4+pTUvWdWyBamz1Ldl3xlD2xADZN+LRvWLW/ZLTfc9GRiC7o3N5QOpeaeub19wXiubRkA68jStPG+nZeMneuVmBWUZL083+cezGPXPdJew3GiBnHUHshp24IBFf9tKFi7QCXNcihcTu69LnXH7hY9qU4dwpwlO+cMC00NV3n173mNiKALnZvuP9BBZNwHl60VpksfdnbP1lbPVd7N63+Hs3MUD2XVXum1rWvc8xv8l20j2QaeQpRijXuhk58U2b1poWW0hTHNOIxnq+gG62qRx4GxcUIDduV/qdkwJkt82mLXC1ntH0jdRp0tX5vmXGu+VvdAprXk5ev/h9PnI/6f6ptWZMLMII5EbawXsILLKA8/Qit87i7dvY+svY6rt4PW659mjNALlcVdnavXXgba2/rZcRmDVATlvgaq0A2b0Hcr0rzk0a4Zv1AtJmA2TfY2LyKcqTAuRaU9LCJJ/WbgSyTP9W6rgEnKfH1d6bre3Y+svY6rvZ/jH29wuQA/UAB95AkIpZKIFJAbIb2qYtcFVqBLI7rT7Hm0eA7Jvq3x2d7av7pKn6af+77gLkQh0WdmZJBZynl7Thtmi3x9ZfxlbfLepW1WxWgByoKR14A0EqZqEEZrkHMu457C6QMkuI2uyiV9MeO1M6QE5awKK73b4FdvKHMfc1eHdUU4BcqMPCziypgPP0kjbcFu322PrL2Oq7Rd2qms0KkAM1pQNvIEjFLJRAX8jrrsI6bQn7WP126BHISdNW5zUCudZ92X2P7Yn9itUaJ61e3A2dXS8BcqEOCzuzpALO00vacFu022PrL2Or7xZ1q2o2K0AO1JTpwEuPF0gLDsXjJmJRn/QFMm1u1oVjJj2ku7vb+TPS8r9N+nI/y+IiG6HJ92PSPuXlpi/bsWpmPCsrf/DypEeIrDVik57BmD93MS3mNJbl+/MwElaxxHz0wdNOO62ZtCLppLbOH6OSvybdnzfrAld9o5STyo7tRPnd1Uzz7fdNme3eO9k3AtnXJ2e9B7Lr2resf3LJ65b2Ky3y1b3nM/XL7jMi3QO5kU8g7yEwWcAXZL1jPQJj6y9jq+96+oLXbisgQA7UK/oCZDzOYNKoQ60Bsvslf4899mjOOOOMicp5gEzPaYwXz+qTCk7l/PCHP2x+7/d+b2Wb6VmMX/va15ojjzxyzX0ZqCtseTGTAuSrXvWqbZ7PuOU7awdmEjACOROTFxFYU8AXZB1kPQJj6y9jq+96+oLXCpDF+kA68GJqXfzEaNpXvvKVdspa37S1vnvE0ohGegh3jFTEcy3jJz0eJR+lyB/WvZkRyO5DwPORj3ykJ9+HGB3cd999m0suuaTJH++S9iP2OT2iJUZYjj/++OaYY45pbrjhhrY+aVQm/h2/z0cgX/Oa1zSnnHJKE/WPOj7pSU9q9tlnn5Xwlz9EvhsgY5/iYc2XXXZZE88nDK8YgYufVEZ35Ktbr+23335lP3OL/LE0eZ27o00PPfTQykjfpPaKfnLttdc2sa13v/vdbT1jlDDMYv/z0dJ4beoHXbe4l+6KK65Y6SOx+mdyjn18wxve0PbDP//zP2/e+MY3tv+fnttY7GBQ8OAC8wqQg++4AgkQILDEAo888sgS7/36dl2AXJ/X2F9tBHKgHrDWgTctQMYuREA44ogj2pCUr9AYz8q866672pHM7v1o+esifPSN9s0yhTUv56abbmpDTISb++67r/3/mIYbPyeffHJz0kkntf+OwBcPjY/9yreR70d3Omu8r1uPgw46aJsAedVVVzX33HPPynTWCJJ9+5FPU00h+DnPeU4TgStN1UxhMwzDJwXZ9PD27vP7ol4nnHDCNu0QLvmjGfI2zf8d27vyyivb/d1tt93adk3PJe06x98ioCaDe++9t/3vqG/aVjikBWr23nvv1ipCYwqKYRrtk7dbbLfUFOWBDhfFrFNgHif2eWxjndX2cgKDCujjg3JWX9jY+svY6lt9By5cQQFyIOBpATKNEuWbSyOIeVjafffdVy04cvPNN68EyO7CIfko5oUXXjgxQKaRwHzbaQQthZIITjGFNL+nLb+PMx+16i7wkU+ZvOaaa1b2Y9KoaD5tdZYAGfudQlRYxYhiGmFMdcrLjKnDKSym0JvvV+7Qne6ZryaaRgkjoHVH7dK9qWefffaqsJaXFwG8+zzAdF9nHhKjzXOrvF2vu+665pZbbmlDYuxD2qdLL720NUlBON+uADnQQb1AxczjxD6PbSwQqV0ZoYA+PsJG30SVx9ZfxlbfTXQNb22aRoAcqBtMC5Bp9C1tLg8J3TCRh4FugExTGVM5KeRNCkjTRiC7o2RRbh5m8mmb+WIf+QI3swTI7gIhsZ189G3aIjqxTzHiGdM746d7X2UeIOPvESKPPvrolVHMPGDnU0Ljtckw/p3XKw+Q8bd8Cm78d0x9jW3kobMbICe1Vz66G8FwrQDZvQAQFx4iUJ5zzjntSHAEfwFyoAN5QYuZx4l9HttYUF67NRIBfXwkDT1QNcfWX8ZW34G6yWiLESAHavrNBMj1jECmqZzdEbGN3gO51ghkHtK6q6XmoSkfkewbgexOG13vCGSM0EWY+/CHP9y2Vkyjzaevxu/yMiNgxf5FMHz44YdXFjKKUcmjjjpq1bTS7gjkpAAZU4nzkcBZRyAntVd3dHOtAJmmMOddtbv4kAA50IG8oMXM48Q+j20sKK/dGomAPj6Shh6ommPrL2Or70DdZLTFCJADNf1mAmTswkbugcwfpL7WFNY8+MS2uo8tmHQPZD76mVYzze+BTPcKTrsHshsg0wjgekYg0/2fu+6668p0zkmBKk2LjQV70iI4KaB1A2R+z+JaI5B5gEyPY9hvv/22WWV3rXsg8/bK7+tcawQyvwcyQnNqqzSF1QjkQAfwghczjxP7PLax4Mx2r3IBfbzyBh64emPrL2Or78DdZXTFCZADNflmAmS677G7CmsaeYtw2bcKa9/qp92pndOmsEYombQKa/f33SmsabXSSavB5s9fjH3NV5QN9nxRm+4U1hSq4/8jBHbvE+w2W3dELg9r3ffm03Jf/epXN7fffvuqVWBjEZ9kn0YQ82f4RX2PPfbY5uMf/3gbZvO/nX766W15aRGffOpu3l6zjkDmfSDqnKx32GGHlcWHulNY06hy3zMxB+ruipmzwDxO7PPYxpzZbI7AKgF9XIdYj8DY+svY6ruevuC12woIkAP1ijEdeOt9RuMQxJMe9j5E2UOW0V3oaMiylTVegXl8vsxjG+NtQTVfBAF9fBFaYXn2YWz9ZWz1XZ6euJh7KkAO1C5jOvDmHSDTKF6aMjtQkw1STHeUNh9lHGQDCiHwk9XOSj+PLH2GdZ+TmhogfyZq36JY8bo0UyJvtLiokh4NlN+7nD9jNr0+jp941E+stJyeGZuXlZ6D6lmmDouNCIzpPL0RH+9ZLTC2/jK2+urvmxMQIDfnt/JuB95AkIohQGAbgXl8vnQDZHp+aexMCowxjT2mTHcf5ROv6T6nNn6X7p2Of++zzz6rVk/uez5ut+J929E9CGxUYB7H0Ub3zfsWT2Bs/WVs9V28HrdceyRADtReDryBIBVDgMDCBcjYofx+6jvuuGPV42vSDndXg44AGKOJcY9zvD/dXxyvFyB19HkLOE/PW3y5tze2/jK2+i5379z6vRcgB2oDB95AkIohQGAhA2Q+db27OnDscN8IZITG+InFvdKzXGMEU4DUybdCwHl6K9SXd5tj6y9jq+/y9szF2HMBcqB2cOANBKkYAgSWIkCmVaPznU0rNcfv8kf/xL2PcS/kjTfe2N7jmALkFVdcsaqu+X2W8QdTWB0MQwo4Tw+pWX9ZY+svY6tv/T24bA0FyIF8HXgDQSqGAIGFDJD5CsPdEci+1Yf7FtrpPvInKpoCZV+zC5AOhiEFnKeH1Ky/rLH1l7HVt/4eXLaGAuRAvg68gSAVQ4DAQgbIafdAxhTV+++/v302aqyS2nePY36PpHsgdfR5CzhPz1t8ubc3tv4ytvoud+/c+r0XIAdqAwfeQJCKIUBg4QLkeldhjZHGww8/vMlXco1K5SE0/mYEUmefp4Dz9Dy1l39bY+svY6vv8vfQra2BADmQvwNvIEjFECCwEAHytttuW7Uf3edAnnrqqc2ll17a5M92jIB4/fXXNy996Uubt7/97U28Z/fdd18pJw+icT+kAKmzz1PAeXqe2su/rbH1l7HVd/l76NbWQIAcyN+BNxCkYggQ2NIAiZ9ArQLO07W2bJl6ja2/jK2+ZXrNeEoVIAdqawfeQJCKIUBAgNQHCBQQcJ4ugFpxkWPrL2Orb+q6X/rSl5oXvOAFzde+9rXmTW96U3PyySev2au/8pWvNH/1V3/VfOpTn2p+/OMfN0972tOal7/85c2RRx7Z/CRUVXxU/F/VBMiBmnmsB95AfIohQGANgXl8vsxjGxqZwFYK6ONbqb982x5bfxlbfVOPjFsv4hFUj3nMY5qnPOUpzbXXXtvstNNOvR02Vhw/7bTTmv/93/9tnv3sZzePetSj2iD53e9+t3n1q1/dnH766aMJkQLkQJ9pYz3wBuJTDAECAqQ+QKCogPN0Ud7qCh9bfxlbfaPDPvDAA0080zgCYdyv/7GPfay55pprmt/93d/dpj9HSHzxi1/cfOtb32re9ra3NQceeGD7mm9+85vNscce23z/+99v3xsjkmP4ESAHauUxHngD0SmGAIEpAvP4fJnHNjQ0ga0U0Me3Un/5tj22/jK2+kaP/MhHPtIcd9xxzTHHHNM885nPbP8dITFGJbvTUdNr+/7+7ne/u3101XnnndecccYZy9fZN7DHAuQG0PreMsYDbyA6xRAgIEDqAwSKCzhPFyeuagNj6y9jq+8jjzzShr13vetdzVVXXdXE46ee97znNT/84Q+b9773vc2v/uqvrurPMUX1/PPPb97//ve39zvmP7fffnt7H+U+++zTrkD+2Mc+tqpjYVLuaZpmu+2apnkkMP1sTGBsB97GlLyLAIGNCMzj82Ue29hI3b2HwFAC+vhQkuMoZ2z9ZWz1/cY3vtE8//nPbx73uMc173vf+5qdd965ueCCC9pRxL7FdGKEMR4/FfdI5o+viqPh7rvvbp99HPdOxmjkz/3cz1V/kBiBHKiJx3bgDcSmGAIEZhCYx+fLPLYxQ1W9hEAxAX28GG2VBY+tv4ytvldccUU77TRGFc8999y2D3/6059ujj766ObJT37yqsV0YlQy7nOMFVj7AmTc/xhTW++7775tnn9c5cHRDj3G2KMRyE2379gOvE2DKYAAgZkFuvdizPxGLyRAgACBDQuMaWbemL7HPvzww+39jp/73OfahW+e9axntX0k/f4Tn/hEO631uc99bvv7H/zgB+19kl/96ld7A2T6+7333itAbvhoG+kbx3TgjbSJVZvAlgnM4/NlHtvYMkAbJvCTK+ZjCgQafXMCY/tMHFN900jj05/+9Obqq69udtxxx5XOctlllzWnnHJK89KXvrR585vf3D6qwwjktseSEcjNfb6svHtMB95AZIohQGBGgXl8vsxjGzNW18sIFBHQx4uwVlvo2PrLmOqbFsRZq/PutddezXve854mQmb8uAdytZYAOdBHXzrw0o20t91226qSTzzxxObyyy9fudG2+/dDDjlkm6sg8cDSuCk3/cSDTvuWB47XXXTRRe2wefzEe7rl77nnnquG3SeVnYbhb7jhhm1k+vax+6Io98wzz+wd4p+1PrF8cvykfY6rQ2eddVb7uzBMP7feemt7s3NMM4jn90z6mfV1sX8xt717NWqgLqIYAhsWmMeJfR7b2DCANxIYQEAfHwBxREWMrb+Mpb4xzTQWz4nnOf7+7/9+8+hHP3qbXv3lL3+5+cxnPrPq/sj4nv3KV76y/a592GGHrXqPVVitwrrhj8ZugIzAkzpYCmXxsNJYJjgCXt/fDzjggJWAGCHq+uuvX5lLncqIVaLyEBU73Bcg8/KnhbxUdr79eE8Er1NPPbW59NJLt1lxqg8qynOUXP4AACAASURBVDn55JPbP8VSxnnY7QbLSduM9+YBMla8ivrGlR8BcsPd0xuXXGAeJ/Z5bGPJm8HuL7mAPr7kDTjn3R9bfxlLfdMzG4866qiVKardrpWe+bj33nu3j/TYddddm49+9KPtAjt9z4GM+yjj95MGeubcdeeyOSOQAzGvFSBjExGA9thjjyY6bDdAptB01113rYxSxs29sTJUvlRwjG72/X49AXKtsNgdzesGyGkjefH3t7zlLU0E5QiBaWRwPdtMgTj+f5dddmlXvAq7WQJkbD+2feedd7ZBvTsim353zz33bPO6GME0AjnQwaCYwQXmcWKfxzYGh1EggXUI6OPrwPLSdpXJMd0zO4b6/uhHP2pe/vKXN9ddd137ffuFL3xhb09/4IEH2u+J//RP/7Tyum9/+9vt62Ol1VjBNS28881vfrNdoTVWYo0g+bSnPW0UR48AOVAzrxUg07TWGBWcZQRyUpCZFMTWEyDXM6q4ntfmI4cx8hiB7+CDD25HYddbTl+TTAuQ8Z4I5kcccUQ78hmvv//++9vpqHfcccfKVNf0ujRCm7/upptuMoV1oONBMcMKzOPEPo9tDKuiNALrE9DH1+c19lePrb+Mob5f+tKXmhe84AXNE57whJWRxUn9PAZC4pas5z3vec3b3/725rGPfWzz/ve/vznttNPatzz72c9uF9j51Kc+1Xz3u99t4r7K008/PT3eovrDR4AcqImn3QOZhrWn3SOZRuAm3YuXRjK700On3QOZ7l/Mw9Ra9w3Gfqwn+KXpqyeddFI7ahqhNk0/nTZyOUsTRL3jik/3Jx9VzEdQ832P96S/xb2hySrqn+9b/M09kLO0htfMW2AeJ/Z5bGPebrZHIBfQx/WH9QiMrb+Mob4pFL7iFa9YuV1qUp9IYTP+ni+m88lPfrK55JJLmptvvrn58Y9/3I44xqjmkUceOZrwGCYC5Ho+TdZ47bQprOmt+WjkpNG5taZSzhogJ90DuZ5QuN7Xpumjqa55uFvPvZR9zNNGILvBMJ/u2w2Q+cJE8be0WE9MSxAgt9WfdNEjX1Qpnz6cl5D6wIUXXtj+unv/bl+7znpIdrc56d6DWbYx6SJHnGzS1PJJ/TJd2Eh1TRdm8v1Li2ilCzP5sZLvdzq5xevy98zjxD7tIth62jsZ5PWJOnUXH+gu2tU1TAtv5RZRTuqTqcw4/uO4nva6fPp6Xz9Nfz/hhBNW3cOdf+72XczKtzvpeEmfM7vttlvvQmd9CzPMeix43WwC8ziOZtsTr1oGgbH1l7HVdxn64CLvowA5UOtsNEDG5rsL5ky61zH/fcyzjnsqYyRyPVNYJ02DjbJTyMu/AM8a/Pq+pKcvXccff3z7ANbuIj1925zUHNMCZHzxm3UEclJIdA9kv373oke8qtuPpl1syPto6l995c56OHZHvCdtf1IAybeTgt5OO+206gHAKfx0Q0l6bz7KHr/L+2het4MOOmil/8exEAtNpZH67kh53EMcz6CKn/yYmceJfa3PsPW296TPtfz+72SUpp3He7qLbcV/v+51r2se//jHr1ptufv7CJCzvC4+J9b6TJvUF7oBMr8Y0l3gbFq/7vt72m5cTOiu7jfrMeF10wXmcRxN3wuvWBaBsfWXsdV3Wfrhou6nADlQy2wmQPaFummrsOYjI/HvW265pb3f78EHH+xdpCev5qQVUbsrvE4LBanMSV+Y8v2K+wvzx3ustapsX5NMC5Dxno3cA5k7m8I6e4BMASGNzk3rK319JA+VMUKZLohs5JDsO4bSBYoor2/14jywxH0LsT9p4ad0b+y+++7bfOc739lm5LRvH/P6dC9o5MdC/sDiaasRJ995nNinfYblnzkbae/knS7gvPWtb+0d3c23ky7qbL/99s2hhx66Eq6ifZ74xCc2n/3sZ9s2S8futNfNEiDjQlSUk/eZtQJk1Cv3SCOMk2aBzPJ5mfeRjRwP3tMvMI/jiH09AmPrL2Orbz09dWtqIkAO5D7ty9e0sNX3/MS1npuYT/3Kn/E4afpUbD+fItUtu2+UZdZVWPtGl9KXqpiql66qz7LNSc0xLUCm+xm7q7DG77vT3fJpbLmdEcjZA+RGRqS6bdg3HXujh2Pfl/JUfoSw+OlOn823tdEprHkZ3Qsm+Uj3pGNkUpjo+s7jxD7kCOSk+iav/NFG3RG3/L0pGOZBPl0YiGM92jQPkNNeN2uAvOCCC5pzzz13ZSXsaQFy2qOa8n4yqc2HuFd8o8fPWN43j+NoLJZjqOfY+svY6juGPlyyjgLkQLoOvIEgFbNwArMs/DTpHsj8wkQe0GOkvO+RNButfDecpkfKxHTQGAkqHSC7F1u6I46TAlXfhZF0oSW/H3Aeny/T7oFc6z7O1G7pNdMuxqwVIPsWtgqn9GigCJWxQFc8jytfHCsC+7TXTboHMu13vu1Y5j3N7Ig+lEbI+9qsL0DGfuY/6R7SSbNEBMiNHv2zv28ex9Hse+OViy4wtv4ytvouev9b9P0TIAdqIQfeQJCKWTiBWRZ+mjalMSqV38Mbq5elL+ebna6XP4olyureH1lyEZ2oV9/9a90A1Rcgu/vdbfj8PT//8z9f/Hlkk0Yg+9p2WntvZgSyL0Beeumlzdlnn93eO5ru/z7wwAO3CZDTXjfrCGSMau6www7tfagx0hmBda0AOe1RTbOMQE4zW7gPhiXcIefpJWy0LdzlsfWXsdV3C7tWFZsWIAdqRgfeQJCKWTiBvil33Xt0pwWKqFQapYlphrfffnv7xXwzC4ZMuo92ltHQLvJGp7D2TT1PoTJf1CkfkYy/RzCZdF9m2rfcNBagKv1A67WmsK63vdeappkWClrPPZBxf3e8Pu5Hjb5z/vnnt0zdEchpr1tPgIzp7ynU7brrriuLgE2aTp8W53EP5MJ9hK3skPP04rbNIu7Z2PrL2Oq7iH1umfZJgByotRx4A0EqZuEEhliFNVUqrWzafVzDRio9y8hilDvL6zYSINcKzZNWYY1VkyftT3fUMg+dsQrpVgbIjdzz2re6dL7Q1ayrsKZ7SWMhrnh/3zNt8wWw1nrdegNk6j/xqJb0uJVu+1mFdSNH79a8x3l6a9yXdatj6y9jq++y9stF2W8BcqCWcOANBKmYhROYNJqUj77FTnefAxq/yxcpSiNz8bqDDz541aI2611QZ9J9mX3Pguw+XqPv3stZA2T3HrlYWTj/yYNxPhKa7rGbtt/5cxO3+h7I7iqiG2nv7nMgu+0zy3MgU4BM9w6mx370TXXNV6Lue92keyBTP81HNbuPm0nlbfQ5kFF2LGQW7RpBuHuPpOdAlv/oc54ub1zTFsbWX8ZW35r66lbURYAcSN2BNxCkYggQ2EZgHp8v89iGpiWwlQL6+FbqL9+2x9Zfxlbf5euRi7XHAuRA7bHW/UOxifzZZgNtsi0mvwrfffbcpO2kqXKx4ETctxMjQnFVfL2rYqbVIruPAOk+NiNdyR+y3otWVt6+MUIRI2x33nln73PuFm3f7c/iC8zjxD6PbSy+tD2sWUAfr7l1h6/b2PrL2Oo7fI8ZV4kC5EDtvVUBMt/9WZeB71tiP18hc//9959JJcp53ete18T9WekB7PHGSb+fqdAlfdGkABnVifve/BDYjMA8Tuzz2MZmDLyXwGYF9PHNCo7r/WPrL2Or77h68/C1FSAHMl1vgEyjd7H5tChEPIIg/326ByotJx+rV7773e9uR7bSvUQpNL7mNa9pTjnllPa+mvS++Hfca5N+0j023RHIeE387YYbbmjvWXvJS17SfP7zn2/ifqLYp/yZevkjF1I522+/fXPooYeurKgZI3BPfOITm89+9rMrwTK/Fyrdb7T33nuvrEYZi1TET/e5gX37H69L5UVZEXhjH9KD4vN7lLpOYXjJJZe09Yy/XXTRRa3ZpGfc5fehRX3TNv7xH/9x5f6+++67b8U5ytlnn32apz71qU38Pn42s9LoQN1TMUsuMI8T+zy2seTNYPeXXEAfX/IGnPPuj62/jK2+c+5O1W1OgByoSdcTIPPnxh100EErISqec5ZPI42QFD/HH398+5p77723DXr5SoLx97SUfT6FtbvaYL6iY6xSGAtTTJrCGsvQ9+1HdyQtBcgIZbG8foSrGMlM02Ljv2NkMgJaBLXY95jOmhY1id9FveInwmrsVyxKEvsWP2lZ/AiI+f7fcccdK39LS+bvt99+7fa7r4vpuREUd9lll3aq7gknnNCOCMY+xLPdutvqLsGfP6svre4Y9cjbLW33rrvuWrUwzEBdSzEEmnmc2OexDU1JYCsF9PGt1F++bY+tv4ytvsvXIxdrjwXIgdqjGyC7K+zFZtIo16SHjL/pTW9qXvWqV7XPOMunkXaX0I+y0qqV+cO017oHMt/mtAAZ20738UVQOvnkk9sHeHentqYy47UR3FJYjGB29NFHrwTb7j2QabpnCpDxjLsIdWtNo833v/v8uEnldZ26gTQFvny7MWqYh93uSo/53/Jpq6XucR2oeypmyQXmcWKfxzaWvBns/pIL6ONL3oBz3v2x9Zex1XfO3am6zQmQAzXpekYg81GyNEU0H0VMj0NIU1tjF2OkLn/w+iwBsrvcfCpvlgAZgS0FwfTg73z6auxTPhU2Rk8jZF5zzTXNHnvs0eTBNk3BjSmy6SfCdAqQqV7dADlp/+PxAvGTppN2A2S+nRTcu4E2D3zdAJlPm433pym3ES7TIwXCQoAc6OBRzFSBeZzY57GNqRX1AgIFBfTxgrgVFj22/jK2+lbYZedaJQFyIO71BMhJI5BpimfapUkja/mI5KQRyO600fWOQKapqBGe4n7GvoVguqOCMY319ttvb0dQ4yeF4uuuu6655ZZbVu6p7NarL0B2RwLXMwKZB+1k2V1gaK0AmYfEvHv0Peg9jWIagRzoQFJMr8A8Tuzz2IbmJbCVAvr4Vuov37bH1l/GVt/l65GLtccC5EDtsZ4AOekeyL5Rsti9dA9k/DvuFczvAcyDWj6FNQ+QaQQwvX+WEch4bX6fYN/KrN1QGiN3aZQz9rEvQKaHgcc9i2uNQOYBsrv/s94DmT94PA/aMaV2UoDs3gMZr7v++uvb+zfD1AjkQAeMYtYl8JMP6nW9x4sJECBAYHMCjzzyyOYKWKJ3C5BL1FgLsKsC5ECNsJ4AGZuctAprvlppdwrrzjvv3KTVStOKqvnIWpSbpl9G0DznnHNWVlY9/fTT222m+xS7i+ikRWG++tWvtiEpAmPf4z5yrvzveViL0cq+/UorxB577LHNxz/+8VWL+MRKpflU0rRCa1oZNt//FABjwZ1YJfWZz3xm8/DDD/euwpruO511BDLqnQJ+rHabpq/2eeQhdNIzMQfqXooZucA8Tuzz2MbIm1H1t1hAH9/iBliyzY+tv4ytvkvWHRdudwXIgZqk5IGXpqz2Tc0caPd7i0n3WS7ycwz7FhgqaaJsAlshUPLzJdVnHtvYCjvbJKCP6wMbERjbZ+LY6ruRPuE9/ycgQA7UG0oeePMOkGl7QZOeBTkQ0yDF5KO3UWD+DMdBNqAQAgsmUPLzxZfrBWtsu1NMYB7HUbGdV/DcBcbWX8ZW37l3qMo2KEAO1KAOvIEgFUOAwDYC8/h8mcc2NC2BrRTQx7dSf/m2Pbb+Mrb6Ll+PXKw9FiAHag8H3kCQiiFAQIDUBwgUEHCeLoBacZFj6y9jq2/FXXcuVRMgB2J24A0EqRgCBARIfYBAAQHn6QKoFRc5tv4ytvpW3HXnUjUBciBmB95AkIohQECA1AcIFBBwni6AWnGRY+svY6tvxV13LlUTIAdiduANBKkYAgS2NEDG43TicUDx2J38Jy1Wlf5+1llnNfH4nfSTP9YmfxRO+ns8cicePxSP4Ym/n3rqqe2jfLrPmO1b/Tl/vFGUlx5jlO9fLK4Vj/ZJjyHq24f0+osvvrjpPhs2/pYWEIvHB8VPvs/x37EfV1555co24nf544f6nperOy+OgPP04rTFMuzJ2PrL2Oq7DH1wkfdRgByodRx4A0EqhgCBhQiQeUDMV4KOUBUBc1qA7AbECIbxc/nll68rQEZou/7661fCZ1+Ajf07+eST2/L32WefpvvooSjjlltuWbWqdPfZsKncI444YuX93VCagmy+8rMAuTwHrPP08rTVIuzp2PrL2Oq7CH1smfdBgByo9Rx4A0EqhgCBhQuQsUNpZPCoo47aUICMMBajg/FooDvuuGOmEchJo515WTvuuGMbSN/ylrc08azcCHlXXXVVO9KZfmYJkPkIat4A+e9TOffee+9KgBYgl+eAdZ5enrZahD0dW38ZW30XoY8t8z4IkAO1ngNvIEjFECCwcAEyD3KbGYHcY4892tG9WaewRlC86KKLVkYfJ3WNCHbxE2VH0D344IO3mV671gjkDjvs0BxzzDFtAM2n5UaZ+T5cd911zV133dWWn8Lwgw8+2Bx33HHN+eefv810XF15sQScpxerPRZ9b8bWX8ZW30Xvf4u+fwLkQC3kwBsIUjEECCxEgOzeAxn3DUZA2+g9kIcccsjKFNL1BMgU1GKkse8nTV896aST2gAXge/GG29sp8rOOgK5VoDMp7qmABmhNgLnAQcc0MSIrAC5HAet8/RytNOi7OXY+svY6rso/WxZ90OAHKjlHHgDQSqGAIGFCJDdexzTTs0aILv3QOYjeffcc89MU1hnGYGctmBP7Pe0KazrDZDpPs7zzjuvueCCC5pzzz3XCOQSHLfO00vQSAu0i2PrL2Or7wJ1taXcFQFyoGZz4A0EqRgCBBY6QOYL6uTTPactkpPfKxgVnGUV1klhNd3zeNlll7X3IsZPPuLYXcl1WoCM+yVnvQcyprCmbcV27r///uahhx4SIJfguHWeXoJGWqBdHFt/GVt9F6irLeWuCJADNZsDbyBIxRAgsNABMnYuBadYECctYhP3D8Y01wiVfVNUNzICmUYP+1ZhjdVS11rQJ7/ncZYAOesqrHmATO954IEHVj3aQxdeTAHn6cVsl0Xdq7H1l7HVd1H73bLslwA5UEs58AaCVAwBAgsfIFOIvOKKK1b2NX82Y9+00j333HPNZzSmv19zzTVNWmwnFd59DmS6H3PSFNe0/RRoZwmQsa1ZngOZB8h4T/dRH7rv4go4Ty9u2yzino2tv4ytvovY55ZpnwTIgVrLgTcQpGIIENjSAImfQK0CztO1tmyZeo2tv4ytvmV6zXhKFSAHamsH3kCQiiFAQIDUBwgUEHCeLoBacZFj6y9jq2/FXXcuVRMgB2J24A0EqRgCBARIfYBAAQHn6QKoFRc5tv4ytvpW3HXnUjUBciBmB95AkIohQECA1AcIFBBwni6AWnGRY+svY6tvxV13LlUTIAdiduANBKkYAgQESH2AQAEB5+kCqBUXObb+Mrb6Vtx151I1AXIgZgfeQJCKIUBAgNQHCBQQcJ4ugFpxkWPrL2Orb8Vddy5VEyAHYnbgDQSpGAIEBEh9gEABAefpAqgVFzm2/jK2+lbcdedSNQFyIGYH3kCQiiFAQIDUBwgUEHCeLoBacZFj6y9jq2/FXXcuVVsVIOeyRRshQIAAAQIECBAgQIAAgWUW2G67pmkeeeSRR5a5EvadAAECBAgQIECAAAECBAoKmMJaEFfRBAgQIECAAAECBAgQqElAgKypNdWFAAECBAgQIECAAAECBQUEyIK4iiZAgAABAgQIECBAgEBNAgJkTa2pLgQIECBAgAABAgQIECgoIEAWxFU0AQIECBAgQIAAAQIEahIQIGtqTXUhQIAAAQIECBAgQIBAQQEBsiCuogkQIECAAAECBAgQIFCTgABZU2uqCwECBAgQIECAAAECBAoKCJAFcRVNgAABAgQIECBAgACBmgQEyJpaU10IECBAgAABAgQIECBQUECALIiraAIECBAgQIAAAQIECNQkIEDW1JrqQoAAAQIECBAgQIAAgYICAmRBXEUTIECAAAECBAgQIECgJgEBsqbWVBcCBAgQIECAAAECBAgUFBAgC+IqmgABAgQIECBAgAABAjUJCJA1taa6ECBAgAABAgQIECBAoKCAAFkQV9EECBAgQIAAAQIECBCoSUCArKk11YUAAQIECBAgQIAAAQIFBQTIgriKJkCAAAECBAgQIECAQE0CAmRNrakuBAgQIECAAAECBAgQKCggQBbEVTQBAgQIECBAgAABAgRqEhAga2pNdSFAgAABAgQIECBAgEBBAQGyIK6iCRAgQIAAAQIECBAgUJOAAFlTa6oLAQIECBAgQIAAAQIECgoIkAVxFU2AAAECBAgQIECAAIGaBATImlpTXQgQIECAAAECBAgQIFBQQIAsiKtoAgQIECBAgAABAgQI1CQgQNbUmupCgAABAgQIECBAgACBggICZEFcRRMgQIAAAQIECBAgQKAmAQGyptZUFwIECBAgQIAAAQIECBQUECAL4iqaAAECBAgQIECAAAECNQkIkDW1proQIECAAAECBAgQIECgoIAAWRBX0QQIECBAgAABAgQIEKhJQICsqTXVhQABAgQIECBAgAABAgUFBMiCuIomQIAAAQIECBAgQIBATQICZE2tqS4ECBAgQIAAAQIECBAoKCBAFsRVNAECBAgQIECAAAECBGoSECBrak11IUCAAAECBAgQIECAQEEBAbIgrqIJECBAgAABAgQIECBQk4AAWVNrqgsBAgQIECBAgAABAgQKCgiQBXEVTYAAAQIECBAgQIAAgZoEBMiaWlNdCBAgQIAAAQIECBAgUFBAgCyIq2gCBAgQIECAAAECBAjUJCBA1tSa6kKAAAECBAgQIECAAIGCAgJkQVxFEyBAgAABAgQIECBAoCYBAbKm1lQXAgQIECBAgAABAgQIFBQQIAviKpoAAQIECBAgQIAAAQI1CQiQNbWmuhAgQIAAAQIECBAgQKCggABZEFfRBAgQIECAAAECBAgQqElAgKypNdWFAAECBAgQIECAAAECBQUEyIK4iiZAgAABAgQIECBAgEBNAgJkTa2pLgQIECBAgAABAgQIECgoIEAWxFU0AQIECBAgQIAAAQIEahIQIGtqTXUhQIAAAQIECBAgQIBAQQEBsiCuogkQIECAAAECBAgQIFCTgABZU2uqCwECBAgQIECAAAECBAoKCJAFcRVNgAABAgQIECBAgACBmgQEyJpaU10IECBAgAABAgQIECBQUECALIiraAIECBAgQIAAAQIECNQkIEDW1JrqQoAAAQIECBAgQIAAgYICAmRBXEUTIECAAAECBAgQIECgJgEBsqbWVBcCBAgQIECAAAECBAgUFBAgC+IqmgABAgQIECBAgAABAjUJCJA1taa6ECBAgAABAgQIECBAoKCAAFkQV9EECBAgQIAAAQIECBCoSUCArKk11YUAAQIECBAgQIAAAQIFBQTIgriKJkCAAAECBAgQIECAQE0CAmRNrakuBAgQIECAAAECBAgQKCggQBbEVTQBAgQIECBAgAABAgRqEhAga2pNdSFAgAABAgQIECBAgEBBAQGyIK6iCRAgQIAAAQIECBAgUJOAAFlTa6oLAQIECBAgQIAAAQIECgoIkAVxFU2AAAECBAgQIECAAIGaBATImlpTXQgQIECAAAECBAgQIFBQQIAsiKtoAgQIECBAgAABAgQI1CQgQNbUmupCgAABAgQIECBAgACBggICZEFcRRMgQIAAAQIECBAgQKAmAQGyptZUFwIECBAgQIAAAQIECBQUECAL4iqaAAECBAgQIECAAAECNQkIkDW1proQIECAAAECBAgQIECgoIAAWRBX0QQIECBAgAABAgQIEKhJQICsqTXVhQABAgQIECBAgAABAgUFBMiCuIomQIAAAQIECBAgQIBATQICZE2tqS4ECBAgQIAAAQIECBAoKCBAFsRVNAECBAgQIECAAAECBGoSECBrak11IUCAAAECBAgQIECAQEEBAbIgrqIJECBAgAABAgQIECBQk4AAWVNrqgsBAgQIECBAgAABAgQKCgiQBXEVTYAAAQIECBAgQIAAgZoEBMiaWlNdCBAgQIAAAQIECBAgUFBAgCyIq2gCBAgQIECAAAECBAjUJCBA1tSa6kKAAAECBAgQIECAAIGCAgJkQVxFEyBAgAABAgQIECBAoCYBAbKm1lQXAgQIECBAgAABAgQIFBQQIAviKpoAAQIECBAgQIAAAQI1CQiQNbWmuhAgQIAAAQIECBAgQKCggABZEFfRBAgQIECAAAECBAgQqElAgKypNdWFAAECBAgQIECAAAECBQUEyIK4iiZAgAABAgQIECBAgEBNAgJkTa2pLgQIECBAgAABAgQIECgoIEAWxFU0AQIECBAgQIAAAQIEahIQIGtqTXUhQIAAAQIECBAgQIBAQQEBsiCuogkQIECAAAECBAgQIFCTgABZU2uqCwECBAgQIECAAAECBAoKCJAFcRVNgAABAgQIECBAgACBmgQEyJpaU10IECBAgAABAgQIECBQUECALIiraAIECBAgQIAAAQIECNQkIEDW1JrqQoAAAQIECBAgQIAAgYICAmRBXEUTIECAAAECBAgQIECgJgEBsqbWVBcCBAgQIECAAAECBAgUFBAgC+IqmgABAgQIECBAgAABAjUJCJA1taa6ECBAgAABAgQIECBAoKCAAFkQV9EECBAgQIAAAQIECBCoSUCArKk11YUAAQIECBAgQIAAAQIFBQTIgriKJkCAAAECBAgQIECAQE0CAmRNrakuBAgQIECAAAECBAgQKCggQBbEVTQBAgQIECBAgAABAgRqEhAga2pNdSFAgAABAgQIECBAgEBBAQGyIK6iCRAgQIAAAQIECBAgUJOAAFlTa6oLAQIECBAgQIAAAQIECgoIkAVxFU2AAAECBAgQIECAAIGaBATImlpTXQgQIECAAAECBAgQIFBQQIAsiKtoAgQIECBA4U1RbAAAIABJREFUgAABAgQI1CQgQNbUmupCgAABAgQIECBAgACBggICZEFcRRMgQIAAAQIECBAgQKAmAQGyptZUFwIECBAgQIAAAQIECBQUECAL4iqaAAECBAgQIECAAAECNQkIkDW1proQIECAAAECBAgQIECgoIAAWRBX0QQIECBAgAABAgQIEKhJQICsqTXVhQABAgQIECBAgAABAgUFBMiCuIomQIAAAQIECBAgQIBATQICZE2tqS4ECBAgQIAAAQIECBAoKCBAFsRVNAECBAgQIECAAAECBGoSECBrak11IUCAAAECBAgQIECAQEEBAbIgrqIJECBAgAABAgQIECBQk4AAWVNrqgsBAgQIECBAgAABAgQKCgiQBXEVTYAAAQIECBAgQIAAgZoEBMiaWlNdCBAgQIAAAQIECBAgUFBAgCyIq2gCBAgQIECAAAECBAjUJCBA1tSa6kKAAAECBAgQIECAAIGCAgJkQVxFEyBAgAABAgQIECBAoCYBAbKm1lQXAgQIECBAgAABAgQIFBQQIAviKpoAAQIECBAgQIAAAQI1CQiQNbWmuhAgQIAAAQIECBAgQKCggABZEFfRBAgQIECAAAECBAgQqElAgKypNdWFAAECBAgQIECAAAECBQUEyIK4iiZAgAABAgQIECBAgEBNAgJkTa2pLgQIECBAgAABAgQIECgoIEAWxFU0AQIECBAgQIAAAQIEahIQIGtqTXUhQIAAAQIECBAgQIBAQQEBsiCuogkQIECAAAECBAgQIFCTgABZU2uqCwECBAgQIECAAAECBAoKCJAFcRVNgAABAgQIECBAgACBmgQEyJpaU10IECBAgAABAgQIECBQUECALIiraAIECBAgQIAAAQIECNQkIEDW1JrqQoAAAQIECBAgQIAAgYICAmRBXEUTIECAAAECBAgQIECgJgEBsqbWVBcCBAgQIECAAAECBAgUFBAgC+IqmgABAgQIECBAgAABAjUJCJA1taa6ECBAgAABAgQIECBAoKCAAFkQV9EECBAgQIAAAQIECBCoSUCArKk11YUAAQIECBAgQIAAAQIFBQTIgriKJkCAAAECBAgQIECAQE0CAmRNrakuBAgQIECAAAECBAgQKCggQBbEVTQBAgQIECBAgAABAgRqEhAga2pNdSFAgAABAgQIECBAgEBBAQGyIK6iCRAgQIAAAQIECBAgUJOAAFlTa6oLAQIECBAgQIAAAQIECgoIkAVxFU2AAAECBAgQIECAAIGaBATImlpTXQgQIECAAAECBAgQIFBQQIAsiKtoAgQIECBAgAABAgQI1CQgQNbUmupCgAABAgQIECBAgACBggICZEFcRRMgQIAAAQIECBAgQKAmAQGyptZUFwIECBAgQIAAAQIECBQUECAL4iqaAAECBAgQIECAAAECNQkIkDW1proQIECAAAECBAgQIECgoIAAWRBX0QQIECBAgAABAgQIEKhJQICsqTXVhQABAgQIECBAgAABAgUFBMiCuIomQIAAAQIECBAgQIBATQICZE2tqS4ECBAgQIAAAQIECBAoKCBAFsRVNAECBAgQIECAAAECBGoSECBrak11IUCAAAECBAgQIECAQEEBAbIgrqIJECBAgAABAgQIECBQk4AAWVNrqgsBAgQIECBAgAABAgQKCgiQBXEVTYAAAQIECBAgQIAAgZoEBMiaWlNdCBAgQIAAAQIECBAgUFBAgCyIq2gCBAgQIECAAAECBAjUJCBA1tSa6kKAAAECBAgQIECAAIGCAgJkQVxFEyBAgAABAgQIECBAoCYBAbKm1lQXAgQIECBAgAABAgQIFBQQIAviKpoAAQIECBAgQIAAAQI1CQiQNbWmuhAgQIAAAQIECBAgQKCggABZEFfRBAgQIECAAAECBAgQqElAgKypNdWFAAECBAgQIECAAAECBQUEyIK4iiZAgAABAgQIECBAgEBNAgJkTa2pLgQIECBAgAABAgQIECgoIEAWxFU0AQIECBAgQIAAAQIEahIQIGtqTXUhQIAAAQIECBAgQIBAQQEBsiCuogkQIECAAAECBAgQIFCTgABZU2uqCwECBAgQIECAAAECBAoKCJAFcRVNgAABAgQIECBAgACBmgQEyJpaU10IECBAgAABAgQIECBQUECALIiraAIECBAgQIAAAQIECNQkIEDW1JrqQoAAAQIECBAgQIAAgYICAmRBXEUTIECAAAECBAgQIECgJgEBsqbWVBcCBAgQIECAAAECBAgUFBAgC+IqmgABAgQIECBAgAABAjUJCJA1taa6ECBAgAABAgQIECBAoKCAAFkQV9EECBAgQIAAAQIECBCoSUCArKk11YUAAQIECBAgQIAAAQIFBQTIgriKJkCAAAECBAgQIECAQE0CAmRNrakuBAgQIECAAAECBAgQKCggQBbEVTQBAgQIECBAgAABAgRqEhAga2pNdSFAgAABAgQIECBAgEBBAQGyIK6iCRAgQIAAAQIECBAgUJOAAFlTa6oLAQIECBAgQIAAAQIECgoIkAVxFU2AAAECBAgQIECAAIGaBATImlpTXQgQIECAAAECBAgQIFBQQIAsiKtoAgQIECBAgAABAgQI1CQgQNbUmupCgAABAgQIECBAgACBggICZEFcRRMgQIAAAQIECBAgQKAmAQGyptZUFwIECBAgQIAAAQIECBQUECAL4iqaAAECBAgQIECAAAECNQkIkDW1proQIECAAAECBAgQIECgoIAAWRBX0QQIECBAgAABAgQIEKhJQICsqTXVhQABAgQIECBAgAABAgUFBMiCuIomQIAAAQIECBAgQIBATQICZE2tqS4ECBAgQIAAAQIECBAoKCBAFsRVNAECBAgQIECAAAECBGoSECBrak11IUCAAAECBAgQIECAQEEBAbIgrqIJECBAgAABAgQIECBQk4AAWVNrqgsBAgQIECBAgAABAgQKCgiQBXEVTYAAAQIECBAgQIAAgZoEBMiaWlNdCBAgQIAAAQIECBAgUFBAgCyIq2gCBAgQIECAAAECBAjUJCBA1tSa6kKAAAECBAgQIECAAIGCAgJkQVxFEyBAgAABAgQIECBAoCYBAbKm1lQXAgQIECBAgAABAgQIFBQQIAviKpoAAQIECBAgQIAAAQI1CQiQNbWmuhAgQIAAAQIECBAgQKCggABZEFfRBAgQIECAAAECBAgQqElAgKypNdWFAAECBAgQIECAAAECBQUEyIK4iiZAgAABAgQIECBAgEBNAgJkTa2pLgQIECBAgAABAgQIECgoIEAWxFU0AQIECBAgQIAAAQIEahIQIGtqTXUhQIAAAQIECBAgQIBAQQEBsiCuogkQIECAAAECBAgQIFCTgABZU2uqCwECBAgQIECAAAECBAoKCJAFcRVNgAABAgQIECBAgACBmgQEyJpaU10IECBAgAABAgQIECBQUECALIiraAIECBAgQIAAAQIECNQkIEDW1JrqQoAAAQIECBAgQIAAgYICAmRBXEUTIECAAAECBAgQIECgJgEBsqbWVBcCBAgQIECAAAECBAgUFBAgC+IqmgABAgQIECBAgAABAjUJCJA1taa6ECBAgAABAgQIECBAoKCAAFkQV9EECBAgQIAAAQIECBCoSUCArKk11YUAAQIECBAgQIAAAQIFBQTIgriKJkCAAAECBAgQIECAQE0CAmRNrakuBAgQIECAAAECBAgQKCggQBbEVTQBAgQIECBAgAABAgRqEhAga2pNdSFAgAABAgQIECBAgEBBAQGyIK6iCRAgQIAAAQIECBAgUJOAAFlTa6oLAQIECBAgQIAAAQIECgoIkAVxFU2AAAECBAgQIECAAIGaBATImlpTXQgQIECAAAECBAgQIFBQQIAsiKtoAgQIECBAgAABAgQI1CQgQNbUmupCgAABAgQIECBAgACBggICZEFcRRMgQIAAAQIECBAgQKAmAQGyptZUFwIECBAgQIAAAQIECBQUECAL4iqaAAECBAgQIECAAAECNQkIkDW1proQIECAAAECBAgQIECgoIAAWRBX0QQIECBAgAABAgQIEKhJQICsqTXVhQABAgQIECBAgAABAgUFBMiCuIomQIAAAQIECBAgQIBATQICZE2tqS4ECBAgQIAAAQIECBAoKCBAFsRVNAECBAgQIECAAAECBGoSECBrak11IUCAAAECBAgQIECAQEEBAbIgrqIJECBAgAABAgQIECBQk4AAWVNrqgsBAgQIECBAgAABAgQKCgiQBXEVTYAAAQIECBAgQIAAgZoEBMiaWlNdCBAgQIAAAQIECBAgUFBAgCyIq2gCBAgQIECAAAECBAjUJCBA1tSa6kKAAAECBAgQIECAAIGCAgJkQVxFEyBAgAABAgQIECBAoCYBAbKm1lQXAgQIECBAgAABAgQIFBQQIAviKpoAAQIECBAgQIAAAQI1CQiQNbWmuhAgQIAAAQIECBAgQKCggABZEFfRBAgQIECAAAECBAgQqElAgKypNdWFAAECBAgQIECAAAECBQUEyIK4iiZAgAABAgQIECBAgEBNAgJkTa2pLgQIECBAgAABAgQIECgoIEAWxFU0AQIECBAgQIAAAQIEahIQIGtqTXUhQIAAAQIECBAgQIBAQQEBsiCuogkQIECAAAECBAgQIFCTgABZU2uqCwECBAgQIECAAAECBAoKCJAFcRVNgAABAgQIECBAgACBmgQEyJpaU10IECBAgAABAgQIECBQUECALIiraAIECBAgQIAAAQIECNQkIEDW1JrqQoAAAQIECBAgQIAAgYICAmRBXEUTIECAAAECBAgQIECgJgEBsqbWVBcCBAgQIECAAAECBAgUFBAgC+IqmgABAgQIECBAgAABAjUJCJA1taa6ECBAgAABAgQIECBAoKCAAFkQV9EECBAgQIAAAQIECBCoSUCArKk11YUAAQIECBAgQIAAAQIFBQTIgriKJkCAAAECBAgQIECAQE0CAmRNrakuBAgQIECAAAECBAgQKCggQBbEVTQBAgQIECBAgAABAgRqEhAga2pNdSFAgAABAgQIECBAgEBBAQGyIK6iCRAgQIAAAQIECBAgUJOAAFlTa6oLAQIECBAgQIAAAQIECgoIkAVxFU2AAAECBAgQIECAAIGaBATImlpTXQgQIECAAAECBAgQIFBQQIAsiKtoAgQIECBAgAABAgQI1CQgQNbUmupCgAABAgQIECBAgACBggICZEFcRRMgQIAAAQIECBAgQKAmAQGyptZUFwIECBAgQIAAAQIECBQUECAL4iqaAAECBAgQIECAAAECNQkIkDW1proQIECAAAECBAgQIECgoIAAWRBX0QQIECBAgAABAgQIEKhJQICsqTXVhQABAgQIECBAgAABAgUFBMiCuIomQIAAAQIECBAgQIBATQICZE2tqS4ECBAgQIAAAQIECBAoKCBAFsRVNAECBAgQIECAAAECBGoSECBrak11IUCAAAECBAgQIECAQEEBAbIgrqIJECBAgAABAgQIECBQk4AAWVNrqgsBAgQIECBAgAABAgQKCgiQBXEVTYAAAQIECBAgQIAAgZoEBMiaWlNdCBAgQIAAAQIECBAgUFBAgCyIq2gCBAgQIECAAAECBAjUJCBA1tSa6kKAAAECBAgQIECAAIGCAgJkQVxFEyBAgAABAgQIECBAoCYBAbKm1lQXAgQIECBAgAABAgQIFBQQIAviKpoAAQIECBAgQIAAAQI1CQiQNbWmuhAgQIAAAQIECBAgQKCggABZEFfRBAgQIECAAAECBAgQqElAgKypNdWFAAECBAgQIECAAAECBQUEyIK4iiZAgAABAgQIECBAgEBNAgJkTa2pLgQIECBAgAABAgQIECgoIEAWxFU0AQIECBAgQIAAAQIEahIQIGtqTXUhQIAAAQIECBAgQIBAQQEBsiCuogkQIECAAAECBAgQIFCTgABZU2uqCwECBAgQIECAAAECBAoKCJAFcRVNgAABAgQIECBAgACBmgQEyJpaU10IECBAgAABAgQIECBQUECALIiraAIECBAgQIAAAQIECNQkIEDW1JrqQoAAAQIECBAgQIAAgYICAmRBXEUTIECAAAECBAgQIECgJgEBsqbWVBcCBAgQIECAAAECBAgUFBAgC+IqmgABAgQIECBAgAABAjUJCJA1taa6ECBAgAABAgQIECBAoKCAAFkQV9EECBAgQIAAAQIECBCoSUCArKk11YUAAQIECBAgQIAAAQIFBQTIgriKJkCAAAECBAgQIECAQE0CAmRNrakuBAgQIECAAAECBAgQKCggQBbEVTQBAgQIECBAgAABAgRqEhAga2pNdSFAgAABAgQIECBAgEBBAQGyIK6iCRAgQIAAAQIECBAgUJOAAFlTa6oLAQIECBAgQIAAAQIECgoIkAVxFU2AAAECBAgQIECAAIGaBATImlpTXQgQIECAAAECBAgQIFBQQIAsiKtoAgQIECBAgAABAgQI1CQgQNbUmupCgAABAgQIECBAgACBggICZEFcRRMgQIAAAQIECBAgQKAmAQGyptZUFwIECBAgQIAAAQIECBQUECAL4iqaAAECBAgQIECAAAECNQkIkDW1proQIECAAAECBAgQIECgoIAAWRBX0QQIECBAgAABAgQIEKhJQICsqTXVhQABAgQIECBAgAABAgUFBMiCuIomQIAAAQIECBAgQIBATQICZE2tqS4ECBAgQIAAAQIECBAoKCBAFsRVNAECBAgQIECAAAECBGoSECBrak11IUCAAAECBAgQIECAQEEBAbIgrqIJECBAgAABAgQIECBQk4AAWVNrqgsBAgQIECBAgAABAgQKCgiQBXEVTYAAAQIECBAgQIAAgZoEBMiaWlNdCBAgQIAAAQIECBAgUFBAgCyIq2gCBAgQIECAAAECBAjUJCBA1tSa6kKAAAECBAgQIECAAIGCAgJkQVxFEyBAgAABAgQIECBAoCYBAbKm1lQXAgQIECBAgAABAgQIFBQQIAviKpoAAQIECBAgQIAAAQI1CQiQNbWmuhAgQIAAAQIECBAgQKCggABZEFfRBAgQIECAAAECBAgQqElAgKypNdWFAAECBAgQIECAAAECBQUEyIK4iiZAgAABAgQIECBAgEBNAgJkTa2pLgQIECBAgAABAgQIECgoIEAWxFU0AQIECBAgQIAAAQIEahIQIGtqTXUhQIAAAQIECBAgQIBAQQEBsiCuogkQIECAAAECBAgQIFCTgABZU2uqCwECBAgQIECAAAECBAoKCJAFcRVNgAABAgQIECBAgACBmgQEyJpaU10IECBAgAABAgQIECBQUECALIiraAIECBAgQIAAAQIECNQkIEDW1JrqQoAAAQIECBAgQIAAgYICAmRBXEUTIECAAAECBAgQIECgJgEBsqbWVBcCBAgQIECAAAECBAgUFBAgC+IqmgABAgQIECBAgAABAjUJCJA1taa6ECBAgAABAgQIECBAoKCAAFkQV9EECBAgQIAAAQIECBCoSUCArKk11YUAAQIECBAgQIAAAQIFBQTIgriKJkCAAAECBAgQIECAQE0CAmRNrakuBAgQIECAAAECBAgQKCggQBbEVTQBAgQIECBAgAABAgRqEhAga2pNdSFAgAABAgQIECBAgEBBAQGyIK6iCRAgQIAAAQIECBAgUJOAAFlTa6oLAQIECBAgQIAAAQIECgoIkAVxFU2AAAECBAgQIECAAIGaBATImlpTXQgQIECAAAECBAgQIFBQQIAsiKtoAgQIECBAgAABAgQI1CQgQNbUmupCgAABAgQIECBAgACBggICZEFcRRMgQIAAAQIECBAgQKAmAQGyptZUFwIECBAgQIAAAQIECBQUECAL4iqaAAECBAgQIECAAAECNQkIkDW1proQIECAAAECBAgQIECgoIAAWRBX0QQIECBAgAABAgQIEKhJQICsqTXVhQABAgQIECBAgAABAgUFBMiCuIomQIAAAQIECBAgQIBATQICZE2tqS4ECBAgQIAAAQIECBAoKCBAFsRVNAECBAgQIECAAAECBGoSECBrak11IUCAAAECBAgQIECAQEEBAbIgrqIJECBAgAABAgQIECBQk4AAWVNrqgsBAgQIECBAgAABAgQKCgiQBXEVTYAAAQIECBAgQIAAgZoEBMiaWlNdCBAgQIAAAQIECBAgUFBAgCyIq2gCBAgQIECAAAECBAjUJCBA1tSa6kKAAAECBAgQIECAAIGCAgJkQVxFEyBAgAABAgQIECBAoCYBAbKm1lQXAgQIECBAgAABAgQIFBQQIAviKpoAAQIECBAgQIAAAQI1CQiQNbWmuhAgQIAAAQIECBAgQKCggABZEFfRBAgQIECAAAECBAgQqElAgKypNdWFAAECBAgQIECAAAECBQUEyIK4iiZAgAABAgQIECBAgEBNAgJkTa2pLgQIECBAgAABAgQIECgoIEAWxFU0AQIECBAgQIAAAQIEahIQIGtqTXUhQIAAAQIECBAgQIBAQQEBsiCuogkQIECAAAECBAgQIFCTgABZU2uqCwECBAgQIECAAAECBAoKCJAFcRVNgAABAgQIECBAgACBmgQEyJpaU10IECBAgAABAgQIECBQUECALIiraAIECBAgQIAAAQIECNQkIEDW1JrqQoAAAQIECBAgQIAAgYICAmRBXEUTIECAAAECBAgQIECgJgEBsqbWVBcCBAgQIECAAAECBAgUFBAgC+IqmgABAgQIECBAgAABAjUJCJA1taa6ECBAgAABAgQIECBAoKCAAFkQV9EECBAgQIAAAQIECBCoSUCArKk11YUAAQIECBAgQIAAAQIFBQTIgriKJkCAAAECBAgQIECAQE0CAmRNrakuBAgQIECAAAECBAgQKCggQBbEVTQBAgQIECBAgAABAgRqEhAga2pNdSFAgAABAgQIECBAgEBBAQGyIK6iCRAgQIAAAQIECBAgUJOAAFlTa6oLAQIECBAgQIAAAQIECgoIkAVxFU2AAAECBAgQIECAAIGaBATImlpTXQgQIECAAAECBAgQIFBQQIAsiKtoAgQIECBAgAABAgQI1CQgQNbUmupCgAABAgQIECBAgACBggICZEFcRRMgQIAAAQIECBAgQKAmAQGyptZUFwIECBAgQIAAAQIECBQUECAL4iqaAAECBAgQIECAAAECNQkIkDW1proQIECAAAECBAgQIECgoIAAWRBX0QQIECBAgAABAgQIEKhJQICsqTXVhQABAgQIECBAgAABAgUFBMiCuIomQIAAAQIECBAgQIBATQICZE2tqS4ECBAgQIAAAQIECBAoKCBAFsRVNAECBAgQIECAAAECBGoSECBrak11IUCAAAECBAgQIECAQEEBAbIgrqIJECBAgAABAgQIECBQk4AAWVNrqgsBAgQIECBAgAABAgQKCgiQBXEVTYAAAQIECBAgQIAAgZoEBMiaWlNdCBAgQIAAAQIECBAgUFBAgCyIq2gCBAgQIECAAAECBAjUJCBA1tSa6kKAAAECBAgQIECAAIGCAgJkQVxFEyBAgAABAgQIECBAoCYBAbKm1lQXAgQIECBAgAABAgQIFBQQIAviKpoAAQIECBAgQIAAAQI1CQiQNbWmuhAgQIAAAQIECBAgQKCggABZEFfRBAgQIECAAAECBAgQqElAgKypNdWFAAECBAgQIECAAAECBQUEyIK4iiZAgAABAgQIECBAgEBNAgJkTa2pLgQIECBAgAABAgQIECgoIEAWxFU0AQIECBAgQIAAAQIEahIQIGtqTXUhQIAAAQIECBAgQIBAQQEBsiCuogkQIECAAAECBAgQIFCTgABZU2uqCwECBAgQIECAAAECBAoKCJAFcRVNgAABAgQIECBAgACBmgQEyJpaU10IECBAgAABAgQIECBQUECALIiraAIECBAgQIAAAQIECNQkIEDW1JrqQoAAAQIECBAgQIAAgYICAmRBXEUTIECAAAECBAgQIECgJgEBsqbWVBcCBAgQIECAAAECBAgUFBAgC+IqmgABAgQIECBAgAABAjUJCJA1taa6ECBAgAABAgQIECBAoKCAAFkQV9EECBAgQIAAAQIECBCoSUCArKk11YUAAQIECBAgQIAAAQIFBQTIgriKJkCAAAECBAgQIECAQE0CAmRNrakuBAgQIECAAAECBAgQKCggQBbEVTQBAgQIECBAgAABAgRqEhAga2pNdSFAgAABAgQIECBAgEBBAQGyIK6iCRAgQIAAAQIECBAgUJOAAFlTa6oLAQIECBAgQIAAAQIECgoIkAVxFU2AAAECBAgQIECAAIGaBATImlpTXQgQIECAAAECBAgQIFBQQIAsiKtoAgQIECBAgAABAgQI1CQgQNbUmupCgAABAgQIECBAgACBggICZEFcRRMgQIAAAQIECBAgQKAmAQGyptZUFwIECBAgQIAAAQIECBQUECAL4iqaAAECBAgQIECAAAECNQkIkDW1proQIECAAAECBAgQIECgoIAAWRBX0QQIECBAgAABAgQIEKhJQICsqTXVhQABAgQIECBAgAABAgUFBMiCuIomQIAAAQIECBAgQIBATQICZE2tqS4ECBAgQIAAAQIECBAoKCBAFsRVNAECBAgQIECAAAECBGoSECBrak11IUCAAAECBAgQIECAQEEBAbIgrqIJECBAgAABAgQIECBQk4AAWVNrqgsBAgQIECBAgAABAgQKCgiQBXEVTYAAAQIECBAgQIAAgZoEBMiaWlNdCBAgQIAAAQIECBAgUFBAgCyIq2gCBAgQIECAAAECBAjUJCBA1tSa6kKAAAECBAgQIECAAIGCAgJkQVxFEyBAgAABAgQIECBAoCYBAbKm1lQXAgQIECBAgAABAgQIFBQQIAviKpoAAQIECBAgQIAAAQI1CQiQNbWmuhAgQIAAAQIECBAgQKCggABZEFfRBAiooX+fAAAgAElEQVQQIECAAAECBAgQqElAgKypNdWFAAECBAgQIECAAAECBQUEyIK4iiZAgAABAgQIECBAgEBNAgJkTa2pLgQIECBAgAABAgQIECgoIEAWxFU0AQIECBAgQIAAAQIEahIQIGtqTXUhQIAAAQIECBAgQIBAQQEBsiCuogkQIECAAAECBAgQIFCTgABZU2uqCwECBAgQIECAAAECBAoKCJAFcRVNgAABAgQIECBAgACBmgQEyJpaU10IECBAgAABAgQIECBQUGBVgCy4HUUTIECAAAECBAgQIECAQB0C223XNM0jjzzySB3VUYvRC8SVEf159N0AAAECBAgsqIDz9II2jN0iMIOAKawzIHnJ8gk4MS1fm9ljAgQIEBiPgPP0eNpaTesTECDra1M1aprGiUk3IECAAAECiyvgPL24bWPPCEwTECCnCfn7Ugo4MS1ls9lpAgQIEBiJgPP0SBpaNasUECCrbFaVcmLSBwgQIECAwOIKOE8vbtvYMwLTBATIaUL+vpQCTkxL2Wx2mgABAgRGIuA8PZKGVs0qBQTIKptVpZyY9AECBAgQILC4As7Ti9s29ozANAEBcpqQvy+lgBPTUjabnSZAgACBkQg4T4+koVWzSgEBsspmVSknJn2AAAECBAgsroDz9OK2jT0jME1g5gB59913N4cffniz3377NZdffvmqcl//+tc3t9xyS3P11Vc3O+64Y/u3H/zgB80xxxzT3HDDDSuvPfHEE1e9N5V52223rSpvzz33bK699tpm//33n1hW/oYPfvCDzWGHHTatrv4+IoFZTkwve9nLmiuuuKJXJfXB++67r7noooua6GP33HNP86IXvai58847e98T/TteG/0+XtfXJyf1+Siw2+9H1FyqSoAAAQIjE+g7T8f3ySuvvHLVd8BgSefOs846qz23xuvuuuuubb6P9r3u+uuvb8/hu++++zbCUU76+w477LDN99b0hvx75oc+9KH2+3DfzyGHHNJ+F37wwQfb13S/38Z7ut+FR9bsqluJwLoDZBwM3cDWDZC33npr+wX64IMPXnVwxxf2L37xiysHchzoxx13XHP++eevhMVwjYPzzDPPXPkASWF00pfyStpCNQYUmCVA5puLPhcXLfKLIKkvpgCZn3wm9clpfXVSnx+w6ooiQIAAAQILLzApQMb3vxTE0qDEZgLkBz7wgWavvfZqLrvsspVBjnR+j5D3jGc8o/1emgJk97tm9zvppO8LOfikc32qxxFHHNGcccYZC99GdpDAJIF1BcgIezvvvHPz9a9/fdXVnDxAxoZiBOaAAw7oPTgiRMZPjGKu9WW6r8xpAbJvJFTTj1NgmQNkCqGTjqFxtqhaEyBAgEBNApMCZMxou/fee5s8ZG0mQEZ58d316KOPXjVYkb6PpoGNSQGy+111MwEy2s931Zp68Xjrsu4AGVdMIvzFwZimsuYHwx133NGceuqpzaWXXrrqQE3EMTp53nnnNVdddVX7q74RyPh9/rpJB/V4m03Npwksc4CcVjd/J0CAAAECyy4wKUDG1NSYwZbPRNtsgIxpr/fff//KwEaUF99Vn/Oc5zTvfOc7p45A3njjjSvfeQXIZe959n8IgXUHyJhuGj8xGnjxxRevzEVP90DedNNNK/eM9c03z6/k7LbbbhMDZP66vffee+K89DT1oG9bQwApYzkFFjlATrovojtlZznl7TUBAgQIEJgusFaAjAGKGCGM0JffU7iReyDj++lrXvOadgpr3JIS02IjBEYojKCablNZ6x7I/Py81j2Q8b04BlpMYZ3e/l6x3AIbCpCxuE1+4/F11123sohOyQA5bQrrcjeFvR9SYJED5KRR9yHrrywCBAgQILDIAtMCZH6/4FFHHdUuSrPRABkh9IILLmjLiO+wEU4jPMZPN0B2v2umdT3SoMmsI5CTLhankLnIbWPfCEwT2HCATPdpxVTWPfbYYyVAmsI6jdzf5yEgQM5D2TYIECBAgMDGBKYFyCg1LWAToSuC3mYCZAxwxKjj2WefvXKrVSwMOS1Axn7k63fMGiC7F4u7C0luTM27CCyGwIYDZOx+uirzi7/4i83jHve4dppB/GzVIjqLQWovFkFAgFyEVrAPBAgQIECgX2CWAJnC2xe+8IXme9/73sqtU5NCXHwvzdfhyNfoiEdrpPse//mf/7m9pzHKmTVAxmBJTE/daIBMAy9Rp+6K7/oIgWUT2FSAjMrGwdldctljPJatG9S3vwJkfW2qRgQIECBQj8CsATJ/fnJ6jNykx2Hk903GvY7dFU/T859TObMEyG4o3WiAzAdeuo+5q6dV1WQsApsOkJOuqKTf33DDDSuW3YenTnqoendhnL6y8gZK5VoaeSzddno9tzpA5v0+7W2csKJvT7ovIl4X03SOP/74NUfxp9feKwgQIECAwGILzBogoxZp4Zr8OeSzfM/sfi/MA2MsvtgXICedv2Ml13xf+nT33HPP9pnSay0SmeriXsjF7p/2bm2BmQMkSALLJLDeALlMdbOvBAgQIEBg2QWcp5e9Be3/mAUEyDG3fsV1d2KquHFVjQABAgSWXsB5eumbUAVGLCBAjrjxa666E1PNratuBAgQILDsAs7Ty96C9n/MAgLkmFu/4ro7MVXcuKpGgAABAksv4Dy99E2oAiMWECBH3Pg1V92JqebWVTcCBAgQWHYB5+llb0H7P2YBAXLMrV9x3Z2YKm5cVSNAgACBpRdwnl76JlSBEQsIkCNu/Jqr7sRUc+uqGwECBAgsu4Dz9LK3oP0fs4AAOebWr7juTkwVN66qEdikwL/92781t99+e7P//vs3v/ALv7DJ0oZ5+yLu0zA1UwqBfgHnaT2DwPIKCJDL23b2fA0BJybdYzMCt956a/OiF72oecpTntJcffXVzY477riZ4rz3JwLJdaeddmrigeAXXnhhc8UVVzQnnnhic/nll2/j9L3vfa955zvf2fz93/9986UvfamJB4fvvPPOzdOe9rTm6KOPbg499NDmp3/6p3t9H3nkkebmm29u3vWudzWf/vSnm29+85urXpce+B0hcl4/i7hP86q77RDoCjhP6xMElldAgFzetrPnAqQ+UEhAgCwDu54A+bGPfax5xSte0fzLv/xLs/vuuzfPetazmgie9957b/P5z3++ufvuu5tnPvOZzaWXXtrsu+++q3b4f/7nf5qLL764/d9DDz20TWXi9RFAX/7yl08MoEMLLOI+DV1H5RFYj4AAuR4tryWwWAIC5GK1h70ZSMCJaSDIERXzjW98o7nyyiubT33qU038OwWPGPHae++9mz/6oz9qjj322OZnf/ZnR6QybFW7ATIC3mWXXbbNCOT73//+5rTTTmt+6qd+qjn33HPbsJePND744INtcHzDG97Q7LLLLs3b3va25sADD1zZ2X/4h39oXvKSl7QjyOeff347YjlppHLYGk4ubRH3aV51tx0CfQLO0/oFgeUVECCXt+3s+RoCTky6x6wCMTJ0ySWXtKNVP/7xj9uw+Eu/9EvNTTfd1E6XfPKTn9x84QtfaKdAPulJT2pf98d//MezFu91mcC3vvWt5k/+5E+axz3ucc373ve+9n9/8Rd/0ZqeccYZ7SvjNS9+8YvbEP93f/d3zZ/+6Z/2GsZ00Gi3v/7rv26e/exnr0w1/tGPftSOLP7rv/5rO331V37lV7a8DRZxn7YcxQ6MXsB5evRdAMASCwiQS9x4dn2ygBOT3jGLQB5C9tprrzaQ/NZv/Vbzuc99btU9kNtvv33z3ve+tw0rDz/8cPOOd7yj+cM//MP2vrwXvOAFbdCMMBT/n//EdMvnP//57a/i/f/5n//ZlnvwwQdvc89fTMk8/PDD29fG/YExbTON2OWvf+CBB5pXvvKVTYzSPe95z2vLef3rX9+ceeaZq4JY2o++MtK2dt11123u8YzFXKJOX/7yl9v9OOyww9qiIlx/4AMfaLcXf+ubGpq/vs//+9//fhsOY2Qx7m385Cc/2W4rgl7aToxInnLKKc1LX/rS5s1vfnPzqEc9amJTfve7323Li4B/1VVXNc997nOb+++/v3WJCwF/+Zd/2Y5S3nDDDe2U12jjMD799NNXjSQnoxNOOKH59V//9dYx7p+Mdv+d3/md1vapT33qNvvxla98pbWPKbVxgSFeH9t94Qtf2Bx33HHNz/zMz7Tv2cg+pY39+7//e/PGN76x+ehHP9puI/pF9NEI3GmfPvShD630nUlYz3jGM9r2vOeee7bpg319KsqJ4yMupLzpTW9q2zwM437gpz/96c2f/dmfNUceeWTz//7f/5vlUPMaAtsIOE/rFASWV0CAXN62s+drCDgx6R6zCKTgEK+NQBNfzONn0j2QEXROPvnk9t67a6+9tnn0ox/dBp0bb7yxueaaa5o/+IM/WLXZj3zkI22QOOmkk9rw2Rfm0htmDZAR4M4555zmOc95TnPQQQe1X+SHCpARGM4666w2QKUgm4Ld3/7t3zavfvWr25AUI35xP2L6iQAVoXtagIzyY8GcCIURSm677bbWM0YaYzGb//7v/249I4xHQI6AMu0n9immqUY5UebXv/715qijjmrbKAJ+hK4DDjigneoaIeiWW25pQ+Fb3/rW5pd/+ZdXtfdv/MZvtO+JgPubv/mbzbe//e3mE5/4RBs2I4jm+5Om2UYBySOCWCzYE20ZU3D/5m/+pq3rRvYpyo3QGCO0EfrC59d+7dfaixARvB/zmMesjNCG/3ve855t2uOII45o6x0/O+ywQ7tPMbLbvYjR16fyiytPeMITmt/+7d9u2z72JQzjAkL06dg/PwQ2IuA8vRE17yGwGAIC5GK0g70YWMCJaWDQSouLkZ34AnzMMce09z+m0a5JAfI//uM/2hDxX//1X21gjJAR/x+jYDGqFUHuJx+q7ehNhJpYQTReE4vAbDZARkCJL//xRT5G3NII11AB8jOf+Ux7n+edd965KkCmEbQIRnnQTt3iZS97Wbua6rQAOa0bpRAd9YyAPssKqWn07ZBDDmlHU++4447WKOoQI47/v73zgLGiav/wURREFBFFFCwURcSCFbHlAxRBAcWK2LAkdkGwhkSCFEXsvSGJJUEBjagoIk0UBSNGggVEMdagqCiooGj88pz/9+5/dnbu3bs7s3vnzv1NYr6P3SnnPO/Ze+Z33xbMj8SLihAcM2aMO/HEE73NYWh24ZqLLrrI2xHBhQ0Rs9gW8fb000+7Vq1a+UI+eJbxgIbzL1esWOHXw/r1690zzzzjw56D9y90TMFQXjzjeFVtbZmw3GyzzfzaIsczeOSzR3gN5lpT5l3ffvvtvc1NbPMcWyf8DCaco0MEakpA+3RNiel8EUgPAQnI9NhCI0mQgDamBGFm+Fb2on3LLbd4z5sduQQkbSQQm4REmljCo4OYQIgQpkpYKIeJTQSHtQKJKyAJIR0yZIgXOIRJ2pGEgCQ0lxBOvG7WZsPmiKeQ5yF+8MI2a9asYMFSk+VDb0ZCWvHsTp061bVp06bay8OFeSxEEzGIRxIRHzxMMFHdNSzsmRc27NChQ8Ullr+IGMSOhMDOnDnTh8fi2STk1oQdF9kaWbp0aYUIDgrIQseEIGd9Mn4EZDiUd/To0W7EiBH+PzyBtRWQudYUwhjPMOvd8lPtGVHe8moNpRNEIERA+7SWhAiULgEJyNK1nUaeh4A2Ji2PQgjwYoxHinYRiLDqBKTl8BHWSMggxXRMYCAqLQ+P+yC+ePlGnJqIiSMgqUaKoFi3bl2FJyxJAWlCYty4cT4cNehRxONGOKTlQe62224FC5ZC7GDnmFAlz87yQKu7PpeAJDcP7xi5f+HDwl4Jyx06dGiFh5CQYOYdFIRca17mKLGGYES0IhjJiSScFO8dXjnzotoYazIm8kARp7lCeRcsWOCr0+J9xENIYSI7CvVA5ltTQWY//fST/0IE0c3cmA+eXryyhdqpOjvq9+VHQPt0+dlcM84OAQnI7NhSMwkQ0Mak5VAIAQQGL9uW02h5fbk8kBbWh4fMwhODYhEPHkJ048aNvhIoxV2C5wU9UbnGZ8VOgkV0LKSUVhUInL333rvS5XE9kHgf8TAievA84Y0NCkhEMmGcCBpCPMnBZHwmtIoZwvriiy96r6VVYrUQVvOiMs7wEeZldiH/MuiJtussTJb8TfIFORBTnEvOoxUUIrSYsE5EPkdYQBY6JtYOY1m0aFFFqHR4DpZX2bJlyyphpIUIyOrWFM8jt5dw3/nz51c8HnFPWC65mLCVgCzkk0bnRBHQPq11IQKlS0ACsnRtp5HnIaCNScujEAKEayKc8HzhlUIksXaiBCTtPqjGSf/BYIEUnhOutoogI6wV71Cwkqjdt0WLFq5Lly6VhrhhwwY3Y8YMhyAIV2FF4FLgZ+zYsb7yJgVggkVs4gpI7oc4xIOKFy5KgOBlY96MLdcRNwfSiuhQfMjCRauzo82dQkXMAU8ZrUI23XTTnOIml4DkC4BwuCbPDwtIivHg/SOUkyJDFDSieivhynx5gOc5GMJq7UsKHVNNBOSuu+5aJay4EAFZ3ZqyvpUUFDrppJP8uujcubOvNEzuZ7hicHV20u9FIExA+7TWhAiULgEJyNK1nUYuAak1kAAB2jVQyRSBhCeLcFNCVREBNKLH40RPQUJdEXhUWqX4StizhfBA9CDCCGscPHiw9+bZizZDjRPCyjj4DxGLd8oqfHLfOAKSliB41ijyY/fMJUAIYUVs4oGkMqlV5iy0Cmsh5rI2HhTzYb6NGjXKeVlUGw8KHPGlAPYkzBjREz4sPJT7M/d8duFay0e0EFYLgYUDuYjV5UDWZkzVhbASRo2I7dq1a61DWHOtKTzOiGnWMy1rqCQcPJQDWchK1jnVEZCArI6Qfi8C6SUgAZle22hkMQhoY4oBrwwvjQpHDGMgdA/hZuIp/Ht7oaeFBBU4uWewqE4SAtIKtBBKa97COAISbyfeUHL3EFvktHHkEpDWuoIwzWBlzqRCWHm2eYXpR0kRlwEDBkSuyGCbCQtfxUb8HDFP4Zko8WPeYv43HGJKAaSwzYI5rtaqJd98LcwZT6TdvzZjKrSITjh/N5/9otZg1JqKKgQUNIK1p2nbtq1CWMvw8zKpKWufToqk7iMC9U9AArL+meuJ9UBAG1M9QM7gI1auXOnmzZvnm8jzkky4Xp8+fXy1TfIPg2Gj4elbdU+ECeKBMMpwdcy4HkieSbEbQhx79epV0Yaith5IeiQyVjxrwdDNKIFEPh5eWbyzCLPjjz++AkGSApKb0vqEcFlCgal2yv2Dnkh+TgsWvML0OQy30jDOhF8ixPCucuQKQ7bzv//+e+/h5T+eF2zjgafPqumaB5KwWQrx2NhWr17tPZqEvLZv375SK5KajqmQNh7MiTHRvzJ4FBLC2rNnz4p8zvCagpt5ICmqBA/zsiLsyYPlbySYr5vBjwNNqY4JaJ+uY8C6vQjUIQEJyDqEq1sXj4A2puKxz8KTcxXRqW5u1lqBvDRrERG8JgkBae02XnvtNZ9fSV9KE5Dk4tFqI3isWbPGN6THa4inDmFGriGhteR+9u7d2+fQ0SzejrAAwSNFmO+UKVO8mEBUBMM2kxaQjIP54V3Dk8vYEXAIeAQ6IbOEUSLsEZLhfFKEHz8fNWqUn1L37t19exVyF99++23/b0Jxrbeh2YVz4duuXTufv0qLFn5HOxHClnkeh4npZcuW+Z9xLoxmzZrlW4Bgfwo0BXNCazomnmP9HgnHpScmHmKK18ydO9c1btzY58QS6huuGltTARm1phg74dwUCAo/m9Dlv//+2zH/Qvt1Vve3o9+XHwHt0+Vnc804OwQkIBO2pYUvsbFG9fsKPo4XitmzZ/swLb7N5QWEfJ2+ffv6Yh7kGOmoHQFtTLXjpqv+j0BtBWR11yUhIBmfFTgxrxhiCGFX3WEeI85DQH7xxRcVIjR4bVCAUECFcFC8qXhhw2KT6+pCQHLftWvX+n6QhNdSXXXVqlU+9xTBNmjQIO8dzpUjGfX5imCk6A3VU4Ofr2YXBDbzJRcUcc05/fv3960+CNcMHoT9jhw50nus+ew+8MAD3cCBA92FF17ovdeML9z2oyZjsmdhI8QwYhKPMfOnoBIeYwoqRR01FZBRa6pp06a+36Wx4By4I1j50mL8+PFeoLMeyMXUIQI1JaB9uqbEdL4IpIeABGTCtsATwMbKt8MU4ODb2aiwt2D+DqXfeXHhf+ntRfU+Xu7ClRYTHmqmb6eNKdPmTe3kaOnAyzQv9+EG9sUeNKJi8eLFylmLMER1RXSKbTs9XwSySED7dBatqjmVCwEJyAQtbTlQ5BTxLTEhWISx9ejRo8pTrAx8s2bNvFC04hWEEvHtOJUI+XaXRs86ak5AG1PNmemKeAT420U08gUQhVgIZUzTIQGZ2xoSkGlaqRpLuRDQPl0ultY8s0hAAjJBq1plOgpN0GOL0ueEMeGVDOeoEJI0bNiwyDDXJUuW+HYCe+yxR0XRhgSHWRa30sZUFmZOxSTJQ6QiKWGMhFgS6snfdtoOCUgJyLStSY2nvAlony5v+2v2pU1AAjIh+1mZdvJBKK9PrhH5MOvWrYv0RuBlRHCSJxn2UFrTabyYVvUvoWGWzW20MZWNqYs+0enTp/v2HhwUmqHNR77ehUUfsAZQhYA8kFoUIlD/BLRP1z9zPVEEkiIgAZkQSar1nXnmmW7rrbd2kyZN8uX/rSJjdcV0wkOgeh/eAnKpCGUNey8TGnKmb6ONKdPm1eREQAREQARKnID26RI3oIZf1gQkIBMyvzV9DuYtWkGNffbZJ2cxnfDjqbJHlTtKtQcbhSc0zLK5jTamsjG1JioCIiACIlCCBLRPl6DRNGQR+B8BCcgElgLFM8h3XLhwYaXeb/bzOXPmeDHYr1+/vE+j1xdFOGjtQaNqWnnI+1g7A2ljqh03XSUCIiACIiAC9UFA+3R9UNYzRKBuCEhAJsDVPI30AQvnLBKCeuWVV/ocKYptNGzYMPKJn3zyibv88st97zH6ufGf8qhqbxxtTLVnpytFQAREQAREoK4JaJ+ua8K6vwjUHQEJyATY4i0kdDXf0bFjR98MG5EZPmj3cc0117gff/zRF+BASMrzGM8w2pji8dPVIiACIiACIlCXBLRP1yVd3VsE6paABGRMvt9++60vnkPl1N69e7stttiiyh3p+fjmm29W6etI5VbK/yMamzRp4m699VZ38sknSzzGtAmXa2NKAKJuIQIiIAIiIAJ1RED7dB2B1W1FoB4ISEDGhGwVU88444ycIarWH7JTp06+pUfr1q39U5999ll31VVXuZ133tlf26VLl5ij0eVGQBuT1kKpEvj666/dokWLfB/Yzp07l+o0NG4REAERyEtA+7QWiAiULgEJyBi2++uvv3y46TPPPOMeeughd/bZZ0fe7eeff3bnnHOOmz9/fsV5b731lu8Zt/3227tHH33U7bXXXjFGokvDBLQxaU2kncDSpUvd448/7ubNm+eWLFlSabhbbbWVz6c+5ZRT0j4Nja8IBPiSgbXB3vLUU0859hPy5vv376/ewUWwhx5ZOwLap2vHTVeJQBoISEDGsML777/vzjrrLLfDDjtU8ixG3fK2227zG/zAgQPdgw8+6K699lo3YcIEt8suu7iWLVtGjgLvw1133eV7S+qoGQFtTDXjpbPrj0AwdH3VqlVVHrz77rt7cTB8+HDXtGnT+huYnlQyBCQgS8ZUGmgeAtqntTxEoHQJSEDGsJ2JQgrg8P/zHSY2OefOO+/0bTqouJrv0LfJtTeONqbas9OVdUuAnOhzzz3X50uPGDHCHX300W7LLbes24fq7pkiEBaQtJAaNmyYPJCZsnL2J6N9Ovs21gyzS0ACMru2LeuZaWMqa/OnevKjR492TzzxhC+gddRRR6V6rBpcOgn88ssvbtCgQe7zzz/31b2//PJLHw1DGgXpFDpEoBQIaJ8uBStpjCIQTUACUisjkwS0MWXSrCU/qT/++MP3hF2/fr2777773COPPOKmTp3qli1b5sPZiToYOnSoa9u2baW5XnrppW7x4sU+v23SpEk+ZH7lypW+LdB5553nLrjgAl/JOXj8888/bvLkye6xxx5zREDwbwp5ITLC57/zzjs+T7tnz55VBIh5u7j3c88958eZ7/zZs2f7+2+++eY+P++www5zdo+DDjrI542PGTPGzZgxww/3yCOP9MXE8MSG2xf9/vvvbuLEiY5iZR9//LFr0KCBnzP546effrr/tx0WERJeJIQE9+nTx1e7btGiRaVff/DBBz565N1333WfffaZI/c0FyNs8Prrr1fMKXgje/b48eN9egKH/QxmVNe2gxDmm266yf8XjjL54osvfNrCCy+84JmFDzuf0OZLLrnEkUc7ZcoU991333m7srbs+SX/x6IJZJ6A9unMm1gTzDABCcgMG7ecp6aNqZytn9650+uVF/3tttvO/fnnn27WrFmua9eubs8993SffPKJF2Zt2rTxwvLwww+vmAjiZcGCBb7YFn1ju3fv7nbccUc3d+5ct3z5cjdgwACfW928eXN/zdq1a72QoEBXu3btXLdu3VzDhg39PRAd5FjyOzs/KQGJ4Lv44ou9V6x9+/ZVBCQCjrEheBjThg0b3PTp0/2YCedFPJuI/Oabb9wVV1zhpk2b5vbdd193xBFHOAqXUXQI8Tx48GCHYGvUqFElwXbaaae5nXbayf/st99+c2+//bYX6Hjo4GpC26pgc94xxxzjWVCU5o033vDiDVFLayW4cSQlIC2E+cMPP6wkIGkFhVeRYmvY/oADDqgQyGvWrHGvvvqqF9t8ibDNNtu4cePGuffee897smHKvEmnCIrV9P4laGQioHZbWgMiUMoEJCBL2Xoae04CEpBaHGkkYJ448p8RgHfffbcXfxx4pvAuXn311R8HSRcAAAwaSURBVF4o4nVr1apVhXh5+OGHXceOHX0O9XHHHed/vnr1au+JmjlzphdTiBwOy7M+9thjHdeZ5y0oLCnqhQjhbyUpAYlndMiQIQ6hHCUgmfeJJ57o7r//ft++iAPBxhw222wz9+STT3rhhFC8/vrrPR9EJOM04WfCEk9ncM65PH4//PCDF2YIZ+7fo0cPZ/17+R0eWoSZHStWrPDn4yWmwjbiPikByZcG5Coi9jmCHkjshP0uu+wybz8Txpxn9kFIm4BM4/rWmESgJgS0T9eEls4VgXQRkIBMlz00moQIaGNKCKRukyiBoIBEKCJ6gmGbuVoDISwQGKNGjXI33nhjpTEhwCjKQ2gn4gLhQ7VnnmUhpMELPv30U3fmmWf6kFYTSEkISAujJLySMZCfFw5h/f77772I+89//lNpDuSF4oG0EFDamuAxbNasmT8fL2rwsDmb0KYdUi4BaeIPfhZOiuBGoOLpQ8wGbfDrr7/6sGAEZ5BfEh7IV155xV100UWuX79+Phw2KAivvPJKPxY8o4TnBg8JyET/DHWzlBDQPp0SQ2gYIlALAhKQtYCmS9JPQBtT+m1UjiM0AUm4KmGeJ5xwQhUMCCY8YHjeyJM0AYTo4XeEcgYPC4tFnCEI8TISJou3kmI9iLDggacTjx/eQhtDEgISAYcAuvfee72QDQowmzehpVFjmjNnjhfB5GASZkp+JAISoYvwC+dGWhEZQlPx1B5yyCE5BSQeS/I7cwlqBCPnMF5yIsmHJGcUUZqkgDRhStgutsVTGxSQ5D7inQzmUZrdJCDL8dMi+3PWPp19G2uG2SUgAZld25b1zLQxlbX5Uzv5cPsFCsyEj+eff97nKCLyrKIm3i/CPym4Q45k8Ah7zBBXiDFy4aLEF9fSRghvJmKOc02g4DXMdSDSchXRsbw+cgkpVkORmygBSXhq1JjCAolQXuZ8yy23uBtuuKHKkPDUkmuJF8/CUs0DGcyB5DzyPilOw/k333xzRU4jOYjcG28muZIcFNGh6M66dev8v8MCkrHnO/IV0cGWY8eOdffcc48PTUbUBgWkMaD4EOPs1atXRXsXCcjU/klrYDEIaJ+OAU+XikCRCUhAFtkAenzdENDGVDdcddd4BMxz9tFHH0WGl3L3XAKSKqwm4JISkBYuaQKFXMkuXbpUmiQeMzyCLVu2jBSQCCLCcRFqeDQRR+EQ0GAV1qg2E7UVkBScMa9sriqsTIaiMwg2BBwhtiZ4GRdCm1zRgw8+2I9948aNOUNYEfDkn2677baVGOEJtTzUqCqs+++/vxfqHTp08F8K4OEMC0g8w3huEfdRFVh5oHoDx/v709XpIqB9Ol320GhEoCYEJCBrQkvnlgwBbUwlY6qyGqh5zl5++WUvfKwYThCChTJSURNRxJEv/27VqlU+5xFxWkgIq40BMZRECOupp57q8/poz0EIZlQOoQnI1q1bRxaBocIoAqtv374FhbBa2C6exepCWCmUQ94oVWcth9Q8sHhLyb+syxxIOOONRawjEA899NC8RXG++uor344DUY2HmjzPqCqsZfWHo8lmkoD26UyaVZMqEwISkGVi6HKbpjamcrN46cyXPEEKpkSJF9pg0EORYiuIDUJZTUASPklOJPlzwcMKypAbOWHCBJ8DWUgRHTyLCMjOnTvXugorAofwT+5FOOwOO+yQV0ASGsozKfgTPKyIDt45QncLLaJDcR3CXalom6+IDt5RBOp+++3nuRK6GiyqExwL3kHyL/FEJpEDiVhF5JKXyv8PVr0NV1WljQhinFYtnItnN9/5pbPqNVIRqEpA+7RWhQiULgEJyNK1nUaeh4A2Ji2PtBKghyFihnzDO+64w4s9W6/8mwbzeCZpL0HoZVBAItgQWYg+DmvjQSjnAw88UFG9s5A2HsE+h7UtooPgod0EYaxWOTSfB5I8TgQSYo9QUg5r40FvTKu4WmgbD1jh9eTIJyARtwhvvKUU6SGUFW9kuGWG8SSMONiGxGxAzmVUZVt7dlQOJMV4aAUSrCYbldMYnHO4Z6VyINP616xxxSGgfToOPV0rAsUlIAFZXP56eh0R0MZUR2B120QITJ482Td9JzTRwhSpzIpQoEgOIocWE3YQwkooJBVV8fhRrIYG9/PmzXOEaBLySK9E6x0Y7PeIl65bt27+fDxxhFOGezHWVkAigs8//3wvau3Z+QQkAg3PXvPmzX01WcJv586d68Xk7bffXql9hfV7nDZtmi82w/mILOaMCA8L0agiOvBbvny5W7hwoWvcuLGvEotXd9GiRT7PkdxFOFPch3HPmjXL5ynuuuuu3mtobT/iCEgK8/BcKuvaESUIeRYiF8Fp/TDznZ/IQtRNRKCIBLRPFxG+Hi0CMQlIQMYEqMvTSUAbUzrtolH9PwFaRuCxQkAhpHbZZRdfeXP48OGubdu2lVBZDiReRlpeELaJ+ET48Du8fw0aNKh0DX0eEap4MgnL5N+dOnXyoZSEyTZp0qSKoKGNRrjIjeUvcnK4Cis/C3vkqsuBHDp0qMNDihBE1HXv3t1dd911jkIz4YOQ3okTJ3ox9/HHH/s5Ev5KldfwnHMV0cGLe+SRRzo8rkcffXRFviP8R44c6cfBmLkv3uALL7zQvfTSS17w0ZsSL2ccARlV+CYsIBHWCHHGFBabPFseSH1yZJGA9uksWlVzKhcCEpDlYukym6c2pjIzeManm6+ITilMvboiOqUwB41RBEQgWQLap5PlqbuJQH0SkICsT9p6Vr0R0MZUb6j1oHogIAFZD5D1CBEQgXoloH26XnHrYSKQKAEJyERx6mZpIaCNKS2W0DiSICABmQRF3UMERCBNBLRPp8kaGosI1IyABGTNeOnsEiGgjalEDKVhFkRAArIgTDpJBESghAhony4hY2moIhAiIAGpJZFJAtqYMmlWTUoEREAERCAjBLRPZ8SQmkZZEpCALEuzZ3/S2piyb2PNUAREQAREoHQJaJ8uXdtp5CIgAak1kEkC2pgyaVZNSgREQAREICMEtE9nxJCaRlkSkIAsS7Nnf9LamLJvY81QBERABESgdAlony5d22nkIiABqTWQSQLamDJpVk1KBERABEQgIwS0T2fEkJpGWRKQgCxLs2d/0tqYsm9jzVAEREAERKB0CWifLl3bZWHk/xNAWZhKMeewySbOuX///fffYg5CzxaBxAhoY0oMpW4kAiIgAiIgAokT0D6dOFLdsAYEtP5qACviVHkg4/HT1SkloA+GlBpGwxIBERABERAB55z2aS2DYhLQ+otHXwIyHj9dnVIC+mBIqWE0LBEQAREQARGQgNQaKDIBvSfGM4AEZDx+ujqlBPTBkFLDaFgiIAIiIAIiIAGpNVBkAnpPjGcACch4/HR1SgnogyGlhtGwREAEREAEREACUmugyAT0nhjPABKQ8fjp6pQS0AdDSg2jYYmACIiACIiABKTWQJEJ6D0xngEkIOPx09UpJaAPhpQaRsMSAREQAREQAQlIrYEiE9B7YjwDSEDG46erU0pAHwwpNYyGJQIiIAIiIAISkFoDRSag98R4BpCAjMdPV6eUgD4YUmoYDUsEREAEREAEJCC1BopMQO+J8QwgARmPn65OKQF9MKTUMBqWCIiACIiACEhAag0UmYDeE+MZQAIyHj9dnVIC+mBIqWE0LBEQAREQARGQgNQaKDIBvSfGM4AEZDx+ujqlBPTBkFLDaFgiIAIiIAIiIAGpNVBkAnpPjGcACch4/HR1SgnogyGlhtGwREAEREAEREACUmugyAT0nhjPABKQ8fjp6pQS0AdDSg2jYYmACIiACIiABKTWQJEJ6D0xngEkIOPx09UpJaAPhpQaRsMSAREQAREQAQlIrYEiE9B7YjwDSEDG46erU0pAHwwpNYyGJQIiIAIiIAISkFoDRSag98R4BpCAjMdPV6eUgD4YUmoYDUsEREAEREAEJCC1BopMQO+J8QwgARmPn65OKQF9MKTUMBqWCIiACIiACEhAag0UmYDeE+MZQAIyHj9dnVIC+mBIqWE0LBEQAREQARGQgNQaKDIBvSfGM0AlARnvVrpaBERABERABERABERABERABESgDAhsskkZTFJTFAEREAEREAEREAEREAEREAERSIDAfwHhTa1cg2isGQAAAABJRU5ErkJggg==;" vertex="1" parent="1">
          <mxGeometry x="790" y="560" width="870.75" height="710" as="geometry" />
        </mxCell>
        <mxCell id="MUi1yYkGbGkddvzHHs3n-4" style="edgeStyle=orthogonalEdgeStyle;rounded=0;orthogonalLoop=1;jettySize=auto;html=1;exitX=0;exitY=0.25;exitDx=0;exitDy=0;entryX=0;entryY=0.25;entryDx=0;entryDy=0;" edge="1" parent="1" target="MUi1yYkGbGkddvzHHs3n-1">
          <mxGeometry relative="1" as="geometry">
            <mxPoint x="935.38" y="880" as="sourcePoint" />
          </mxGeometry>
        </mxCell>
        <mxCell id="MUi1yYkGbGkddvzHHs3n-6" style="edgeStyle=orthogonalEdgeStyle;rounded=0;orthogonalLoop=1;jettySize=auto;html=1;exitX=0;exitY=0.75;exitDx=0;exitDy=0;entryX=0;entryY=0.75;entryDx=0;entryDy=0;" edge="1" parent="1" target="MUi1yYkGbGkddvzHHs3n-1">
          <mxGeometry relative="1" as="geometry">
            <mxPoint x="935.38" y="909.8571428571429" as="sourcePoint" />
          </mxGeometry>
        </mxCell>
        <mxCell id="MUi1yYkGbGkddvzHHs3n-8" style="edgeStyle=orthogonalEdgeStyle;rounded=0;orthogonalLoop=1;jettySize=auto;html=1;exitX=0;exitY=0.5;exitDx=0;exitDy=0;entryX=0;entryY=0.5;entryDx=0;entryDy=0;" edge="1" parent="1" target="MUi1yYkGbGkddvzHHs3n-1">
          <mxGeometry relative="1" as="geometry">
            <mxPoint x="795.38" y="895" as="sourcePoint" />
          </mxGeometry>
        </mxCell>
        <mxCell id="MUi1yYkGbGkddvzHHs3n-10" style="edgeStyle=orthogonalEdgeStyle;rounded=0;orthogonalLoop=1;jettySize=auto;html=1;entryX=0.25;entryY=1;entryDx=0;entryDy=0;" edge="1" parent="1" target="MUi1yYkGbGkddvzHHs3n-1">
          <mxGeometry relative="1" as="geometry">
            <mxPoint x="1100.38" y="1135" as="sourcePoint" />
          </mxGeometry>
        </mxCell>
        <mxCell id="MUi1yYkGbGkddvzHHs3n-12" style="edgeStyle=orthogonalEdgeStyle;rounded=0;orthogonalLoop=1;jettySize=auto;html=1;exitX=0.5;exitY=1;exitDx=0;exitDy=0;entryX=0.5;entryY=1;entryDx=0;entryDy=0;" edge="1" parent="1" target="MUi1yYkGbGkddvzHHs3n-1">
          <mxGeometry relative="1" as="geometry">
            <mxPoint x="1145.6657142857143" y="1075" as="sourcePoint" />
          </mxGeometry>
        </mxCell>
        <mxCell id="MUi1yYkGbGkddvzHHs3n-18" style="edgeStyle=orthogonalEdgeStyle;rounded=0;orthogonalLoop=1;jettySize=auto;html=1;exitX=1;exitY=0.5;exitDx=0;exitDy=0;" edge="1" parent="1" source="MUi1yYkGbGkddvzHHs3n-1">
          <mxGeometry relative="1" as="geometry">
            <mxPoint x="1585.38" y="895" as="targetPoint" />
          </mxGeometry>
        </mxCell>
        <mxCell id="MUi1yYkGbGkddvzHHs3n-1" value="&lt;span style=&quot;font-size: 14px;&quot;&gt;Составления бронирования&lt;/span&gt;" style="html=1;align=center;verticalAlign=top;rounded=1;absoluteArcSize=1;arcSize=10;dashed=0;whiteSpace=wrap;" vertex="1" parent="1">
          <mxGeometry x="1055.38" y="865" width="180" height="60" as="geometry" />
        </mxCell>
        <mxCell id="MUi1yYkGbGkddvzHHs3n-14" style="edgeStyle=orthogonalEdgeStyle;rounded=0;orthogonalLoop=1;jettySize=auto;html=1;exitX=0;exitY=0.5;exitDx=0;exitDy=0;startArrow=classic;startFill=1;endArrow=none;endFill=0;" edge="1" parent="1" source="MUi1yYkGbGkddvzHHs3n-2">
          <mxGeometry relative="1" as="geometry">
            <mxPoint x="915.38" y="895" as="targetPoint" />
          </mxGeometry>
        </mxCell>
        <mxCell id="MUi1yYkGbGkddvzHHs3n-15" style="edgeStyle=orthogonalEdgeStyle;rounded=0;orthogonalLoop=1;jettySize=auto;html=1;exitX=0.25;exitY=1;exitDx=0;exitDy=0;startArrow=classic;startFill=1;endArrow=none;endFill=0;" edge="1" parent="1" source="MUi1yYkGbGkddvzHHs3n-2">
          <mxGeometry relative="1" as="geometry">
            <mxPoint x="1145.38" y="1065" as="targetPoint" />
            <Array as="points">
              <mxPoint x="1330.38" y="1035" />
              <mxPoint x="1146.38" y="1035" />
              <mxPoint x="1146.38" y="1065" />
            </Array>
          </mxGeometry>
        </mxCell>
        <mxCell id="MUi1yYkGbGkddvzHHs3n-19" style="edgeStyle=orthogonalEdgeStyle;rounded=0;orthogonalLoop=1;jettySize=auto;html=1;exitX=0;exitY=0.25;exitDx=0;exitDy=0;startArrow=classic;startFill=1;endArrow=none;endFill=0;" edge="1" parent="1" source="MUi1yYkGbGkddvzHHs3n-2">
          <mxGeometry relative="1" as="geometry">
            <mxPoint x="1265.38" y="895" as="targetPoint" />
          </mxGeometry>
        </mxCell>
        <mxCell id="MUi1yYkGbGkddvzHHs3n-27" style="edgeStyle=orthogonalEdgeStyle;rounded=0;orthogonalLoop=1;jettySize=auto;html=1;exitX=1;exitY=0.5;exitDx=0;exitDy=0;" edge="1" parent="1" source="MUi1yYkGbGkddvzHHs3n-2">
          <mxGeometry relative="1" as="geometry">
            <mxPoint x="1595.38" y="985.2857142857143" as="targetPoint" />
          </mxGeometry>
        </mxCell>
        <mxCell id="MUi1yYkGbGkddvzHHs3n-2" value="&lt;span style=&quot;font-size: 14px;&quot;&gt;Подтверждение платежей в банковской системе&lt;/span&gt;" style="html=1;align=center;verticalAlign=top;rounded=1;absoluteArcSize=1;arcSize=10;dashed=0;whiteSpace=wrap;" vertex="1" parent="1">
          <mxGeometry x="1285.38" y="955" width="180" height="60" as="geometry" />
        </mxCell>
        <mxCell id="MUi1yYkGbGkddvzHHs3n-17" style="edgeStyle=orthogonalEdgeStyle;rounded=0;orthogonalLoop=1;jettySize=auto;html=1;exitX=0;exitY=0.25;exitDx=0;exitDy=0;startArrow=classic;startFill=1;endArrow=none;endFill=0;" edge="1" parent="1" source="MUi1yYkGbGkddvzHHs3n-3">
          <mxGeometry relative="1" as="geometry">
            <mxPoint x="915.38" y="895" as="targetPoint" />
          </mxGeometry>
        </mxCell>
        <mxCell id="MUi1yYkGbGkddvzHHs3n-20" style="edgeStyle=orthogonalEdgeStyle;rounded=0;orthogonalLoop=1;jettySize=auto;html=1;exitX=0;exitY=0.5;exitDx=0;exitDy=0;startArrow=classic;startFill=1;endArrow=none;endFill=0;" edge="1" parent="1" source="MUi1yYkGbGkddvzHHs3n-3">
          <mxGeometry relative="1" as="geometry">
            <mxPoint x="1265.38" y="895" as="targetPoint" />
          </mxGeometry>
        </mxCell>
        <mxCell id="MUi1yYkGbGkddvzHHs3n-29" style="edgeStyle=orthogonalEdgeStyle;rounded=0;orthogonalLoop=1;jettySize=auto;html=1;exitX=1;exitY=0.5;exitDx=0;exitDy=0;" edge="1" parent="1" source="MUi1yYkGbGkddvzHHs3n-3">
          <mxGeometry relative="1" as="geometry">
            <mxPoint x="1635.38" y="835.3103448275863" as="targetPoint" />
          </mxGeometry>
        </mxCell>
        <mxCell id="MUi1yYkGbGkddvzHHs3n-31" style="edgeStyle=orthogonalEdgeStyle;rounded=0;orthogonalLoop=1;jettySize=auto;html=1;entryX=0.5;entryY=0;entryDx=0;entryDy=0;" edge="1" parent="1" target="MUi1yYkGbGkddvzHHs3n-3">
          <mxGeometry relative="1" as="geometry">
            <mxPoint x="1455.38" y="695" as="sourcePoint" />
          </mxGeometry>
        </mxCell>
        <mxCell id="MUi1yYkGbGkddvzHHs3n-3" value="&lt;span style=&quot;font-size: 14px;&quot;&gt;Сохранение отзывов клиентов&lt;/span&gt;" style="html=1;align=center;verticalAlign=top;rounded=1;absoluteArcSize=1;arcSize=10;dashed=0;whiteSpace=wrap;" vertex="1" parent="1">
          <mxGeometry x="1365.38" y="805" width="180" height="60" as="geometry" />
        </mxCell>
        <mxCell id="MUi1yYkGbGkddvzHHs3n-5" value="&lt;font style=&quot;font-size: 10px;&quot;&gt;Данные о гостинице&lt;/font&gt;" style="text;html=1;strokeColor=none;fillColor=none;align=center;verticalAlign=middle;whiteSpace=wrap;rounded=0;rotation=0;" vertex="1" parent="1">
          <mxGeometry x="935.38" y="855" width="110" height="30" as="geometry" />
        </mxCell>
        <mxCell id="MUi1yYkGbGkddvzHHs3n-7" value="&lt;font style=&quot;font-size: 10px;&quot;&gt;Прайс-лист&lt;br&gt;на номера&lt;br&gt;&lt;/font&gt;" style="text;html=1;strokeColor=none;fillColor=none;align=center;verticalAlign=middle;whiteSpace=wrap;rounded=0;rotation=0;" vertex="1" parent="1">
          <mxGeometry x="935.38" y="895" width="110" height="30" as="geometry" />
        </mxCell>
        <mxCell id="MUi1yYkGbGkddvzHHs3n-9" value="&lt;font style=&quot;font-size: 10px;&quot;&gt;Идентификатор&lt;br&gt;клиента&lt;br&gt;&lt;/font&gt;" style="text;html=1;strokeColor=none;fillColor=none;align=center;verticalAlign=middle;whiteSpace=wrap;rounded=0;rotation=0;" vertex="1" parent="1">
          <mxGeometry x="805.38" y="880" width="110" height="30" as="geometry" />
        </mxCell>
        <mxCell id="MUi1yYkGbGkddvzHHs3n-11" value="&lt;font style=&quot;font-size: 10px;&quot;&gt;Клиент&lt;br&gt;&lt;/font&gt;" style="text;html=1;strokeColor=none;fillColor=none;align=center;verticalAlign=middle;whiteSpace=wrap;rounded=0;rotation=-90;" vertex="1" parent="1">
          <mxGeometry x="1060.38" y="1090" width="60" height="20" as="geometry" />
        </mxCell>
        <mxCell id="MUi1yYkGbGkddvzHHs3n-13" value="&lt;font style=&quot;font-size: 10px;&quot;&gt;Система&lt;br&gt;&lt;/font&gt;" style="text;html=1;strokeColor=none;fillColor=none;align=center;verticalAlign=middle;whiteSpace=wrap;rounded=0;rotation=-90;" vertex="1" parent="1">
          <mxGeometry x="1105.38" y="1005" width="60" height="30" as="geometry" />
        </mxCell>
        <mxCell id="MUi1yYkGbGkddvzHHs3n-21" value="&lt;font style=&quot;font-size: 10px;&quot;&gt;Данные о бронированиях&lt;/font&gt;" style="text;html=1;strokeColor=none;fillColor=none;align=center;verticalAlign=middle;whiteSpace=wrap;rounded=0;rotation=0;" vertex="1" parent="1">
          <mxGeometry x="1275.38" y="875" width="140" height="30" as="geometry" />
        </mxCell>
        <mxCell id="MUi1yYkGbGkddvzHHs3n-25" value="" style="endArrow=classic;html=1;rounded=0;entryX=0.75;entryY=1;entryDx=0;entryDy=0;" edge="1" parent="1" target="MUi1yYkGbGkddvzHHs3n-3">
          <mxGeometry width="50" height="50" relative="1" as="geometry">
            <mxPoint x="1325.38" y="1035" as="sourcePoint" />
            <mxPoint x="1480.38" y="1035" as="targetPoint" />
            <Array as="points">
              <mxPoint x="1500.38" y="1035" />
            </Array>
          </mxGeometry>
        </mxCell>
        <mxCell id="MUi1yYkGbGkddvzHHs3n-26" value="" style="endArrow=classic;html=1;rounded=0;exitX=0.5;exitY=1;exitDx=0;exitDy=0;entryX=0.926;entryY=1.008;entryDx=0;entryDy=0;entryPerimeter=0;" edge="1" parent="1" source="MUi1yYkGbGkddvzHHs3n-11" target="MUi1yYkGbGkddvzHHs3n-3">
          <mxGeometry width="50" height="50" relative="1" as="geometry">
            <mxPoint x="1115.38" y="1115" as="sourcePoint" />
            <mxPoint x="1115.38" y="985" as="targetPoint" />
            <Array as="points">
              <mxPoint x="1531.38" y="1100" />
            </Array>
          </mxGeometry>
        </mxCell>
        <mxCell id="MUi1yYkGbGkddvzHHs3n-28" value="&lt;font style=&quot;font-size: 10px;&quot;&gt;Отчеты&lt;/font&gt;" style="text;html=1;strokeColor=none;fillColor=none;align=center;verticalAlign=middle;whiteSpace=wrap;rounded=0;rotation=0;" vertex="1" parent="1">
          <mxGeometry x="1485.38" y="975" width="140" height="10" as="geometry" />
        </mxCell>
        <mxCell id="MUi1yYkGbGkddvzHHs3n-30" value="&lt;font style=&quot;font-size: 10px;&quot;&gt;Отзывы&lt;/font&gt;" style="text;html=1;strokeColor=none;fillColor=none;align=center;verticalAlign=middle;whiteSpace=wrap;rounded=0;rotation=0;" vertex="1" parent="1">
          <mxGeometry x="1515.38" y="825" width="140" height="10" as="geometry" />
        </mxCell>
        <mxCell id="MUi1yYkGbGkddvzHHs3n-32" value="&lt;font style=&quot;font-size: 10px;&quot;&gt;Пользовательское&lt;br&gt;соглашение&lt;br&gt;&lt;/font&gt;" style="text;html=1;strokeColor=none;fillColor=none;align=center;verticalAlign=middle;whiteSpace=wrap;rounded=0;rotation=-90;" vertex="1" parent="1">
          <mxGeometry x="1425.38" y="735" width="60" height="20" as="geometry" />
        </mxCell>
        <mxCell id="MUi1yYkGbGkddvzHHs3n-33" value="21" style="text;html=1;strokeColor=none;fillColor=none;align=center;verticalAlign=middle;whiteSpace=wrap;rounded=0;" vertex="1" parent="1">
          <mxGeometry x="1215.38" y="895" width="20" height="30" as="geometry" />
        </mxCell>
        <mxCell id="MUi1yYkGbGkddvzHHs3n-34" value="23" style="text;html=1;strokeColor=none;fillColor=none;align=center;verticalAlign=middle;whiteSpace=wrap;rounded=0;" vertex="1" parent="1">
          <mxGeometry x="1525.38" y="835" width="20" height="30" as="geometry" />
        </mxCell>
        <mxCell id="MUi1yYkGbGkddvzHHs3n-35" value="22" style="text;html=1;strokeColor=none;fillColor=none;align=center;verticalAlign=middle;whiteSpace=wrap;rounded=0;" vertex="1" parent="1">
          <mxGeometry x="1445.38" y="995" width="20" height="30" as="geometry" />
        </mxCell>
      </root>
    </mxGraphModel>
  </diagram>
  <diagram id="30CSTh-y9SVbLgZfz-_A" name="Страница — 2">
    <mxGraphModel dx="5413" dy="2800" grid="1" gridSize="10" guides="1" tooltips="1" connect="1" arrows="1" fold="1" page="1" pageScale="1" pageWidth="3300" pageHeight="2339" math="0" shadow="0">
      <root>
        <mxCell id="0" />
        <mxCell id="1" parent="0" />
      </root>
    </mxGraphModel>
  </diagram>
</mxfile>
